<svg id="レイヤー_1" data-name="レイヤー 1" xmlns="http://www.w3.org/2000/svg" xmlns:xlink="http://www.w3.org/1999/xlink" width="96" height="96" viewBox="0 0 96 96"><defs><style>.cls-1,.cls-27,.cls-7{fill:none;}.cls-2{fill:#dec51d;}.cls-3{fill:#231815;}.cls-4{fill:#4d5154;}.cls-5{clip-path:url(#clip-path);}.cls-6{fill:url(#名称未設定グラデーション);}.cls-27,.cls-7{stroke:#231815;stroke-miterlimit:10;}.cls-7{stroke-width:0.77px;}.cls-8{clip-path:url(#clip-path-2);}.cls-9{clip-path:url(#clip-path-3);}.cls-10{opacity:0.9;}.cls-11{fill:#fcecf1;}.cls-12{fill:#fce6ec;}.cls-13{fill:#f8cfdb;}.cls-14{fill:#f9d5df;}.cls-15{fill:#f9d2dc;}.cls-16{fill:#fad7e0;}.cls-17{clip-path:url(#clip-path-6);}.cls-18{fill:#fcebf0;}.cls-19{fill:#fbdfe6;}.cls-20{fill:#fadbe4;}.cls-21{fill:#fbe2e9;}.cls-22{opacity:0.61;}.cls-23{clip-path:url(#clip-path-8);}.cls-24{fill:#a02724;}.cls-25{fill:#e5c51c;}.cls-26{fill:#c59610;}.cls-27{stroke-linecap:round;stroke-width:1.03px;}.cls-28{fill:#010c1b;}.cls-29{fill:#1d2a2c;}.cls-30{opacity:0.8;}.cls-31{clip-path:url(#clip-path-9);}.cls-32{fill:#e0b488;}.cls-33{fill:#a56643;}.cls-34{clip-path:url(#clip-path-10);}.cls-35{fill:#c88455;}.cls-36{clip-path:url(#clip-path-11);}.cls-37{clip-path:url(#clip-path-12);}.cls-38{fill:#040000;}.cls-39{fill:#333;}.cls-40{fill:#fff;}</style><clipPath id="clip-path" transform="translate(0 0)"><path class="cls-1" d="M48.3,52.65c-2.22.09-6.86,3-8.24,3.48a34.09,34.09,0,0,1,.62,5.41c.1,3.78-.5,13.11,7.86,13.6s7.26-10.76,7.31-13a27,27,0,0,1,.91-4.89c-1.45-.66-5-4.62-8.31-4.62H48.3"/></clipPath><linearGradient id="名称未設定グラデーション" x1="-1834.42" y1="9.4" x2="-1834.09" y2="9.4" gradientTransform="matrix(-46.9, -89.78, 89.78, -46.9, -86817.27, -164179.52)" gradientUnits="userSpaceOnUse"><stop offset="0" stop-color="#f2944c"/><stop offset="1" stop-color="#e73127"/></linearGradient><clipPath id="clip-path-2" transform="translate(0 0)"><path class="cls-1" d="M48.3,52.65c-2.22.09-6.86,3-8.24,3.48.28,1.45,1.4,5,1.47,7,.1,3.78-1.34,11.56,7,12.05s7.26-10.76,7.31-13a27,27,0,0,1,.91-4.89c-1.45-.65-5-4.62-8.31-4.62H48.3"/></clipPath><clipPath id="clip-path-3" transform="translate(0 0)"><rect class="cls-1" x="31.57" y="29.74" width="46.97" height="38.84"/></clipPath><clipPath id="clip-path-6" transform="translate(0 0)"><rect class="cls-1" x="18.27" y="26.86" width="52.86" height="37.58"/></clipPath><clipPath id="clip-path-8" transform="translate(0 0)"><rect class="cls-1" x="48.51" y="53.65" width="0.72" height="15.55"/></clipPath><clipPath id="clip-path-9" transform="translate(0 0)"><rect class="cls-1" x="21.18" y="16.61" width="9.04" height="43.81"/></clipPath><clipPath id="clip-path-10" transform="translate(0 0)"><rect class="cls-1" x="7.01" y="31.52" width="9.45" height="29.4"/></clipPath><clipPath id="clip-path-11" transform="translate(0 0)"><rect class="cls-1" x="66.38" y="16.61" width="9.03" height="43.81"/></clipPath><clipPath id="clip-path-12" transform="translate(0 0)"><rect class="cls-1" x="79.94" y="31.52" width="9.45" height="29.4"/></clipPath></defs><g id="レイヤー_1-2" data-name="レイヤー 1"><path class="cls-2" d="M77.18,44.69c-.77-3.34-1.87-6.62-2.18-10s.8-6.8.74-10.27a11.6,11.6,0,0,0-.5-2.79,9.72,9.72,0,0,0-1.11-2.88c-1.35-1.9-13-8.57-14.5-8.94a21.55,21.55,0,0,0-3.09-.38A15.41,15.41,0,0,1,58.7,7.8c.09-.06.32-.34.11-.41-1.23-.46-3.17.35-4.24.92A7.37,7.37,0,0,0,53,9.56a6.59,6.59,0,0,0,.81-3.45c0-.39-.61,0-.66.22a3.69,3.69,0,0,1-1.48,2A4.61,4.61,0,0,0,52,7.43C52.42,6,52,3.81,50.46,3.1c-.11,0-.28.13-.2.22.76,1,0,3-.79,3.84a12.42,12.42,0,0,1-4,1.6c-1.92.53-14.62,5.21-15.76,6a39.21,39.21,0,0,0-3.44,2.86,22.68,22.68,0,0,0-5.79,6.77c-.08.17,0,.2.14.18l-.12.35c-1.93,5.74,2.16,11.56.53,17.35a20,20,0,0,0-.36,6.08,11.3,11.3,0,0,0,.14,1.53,26.76,26.76,0,0,0,2.3,6.5c3.68,7.59,13.21,14,11.24,23.44,0,.11,0,.19.17.17.68-.17,1.1-1,1.34-1.71.22,1.2.7,2.93,1.73,3.45.18.09.44-.19.38-.35a6.67,6.67,0,0,1,0-3.52,6.78,6.78,0,0,0,.26,1.85c.5,1.63,2,2.84,3.4,3.8s3.35,5.38,5.15,7.18c1.39,1.38,3.82-5.49,5.75-5.84s.12,4.06,1.77,3.25c.68-.33,4.85-5.73,5.36-6.27s1.37-1.15,2-1.78a12.33,12.33,0,0,0,2.66-4.34v2.16c0,.23.33,0,.4,0a7.82,7.82,0,0,0,1.17-3.23,10,10,0,0,1,.24,1.89c0,.21.29.08.38,0,.95-.78,1.21-2.5,1.37-3.58.37-2.29.12-4.56.75-6.83,1.81-6.64,9-11.52,8.88-18.69a11.89,11.89,0,0,0-.34-2.66" transform="translate(0 0)"/><path class="cls-2" d="M72.61,53.2a1.34,1.34,0,0,0-.07-.27c-.05-.15.16-.32.33-.22l.08.07h0a6.32,6.32,0,0,1,1.41,1.27,11.27,11.27,0,0,0-.88-2.5c-.08-.16.18-.28.33-.21a3.71,3.71,0,0,1,1.49,1.37A10.17,10.17,0,0,0,74,49c-1.1-1.95-2.56-3.74-3.82-5.62a15.26,15.26,0,0,1-1.82-3.66,12.24,12.24,0,0,1-.71-1.62c-2.06-5.78-36.82-9.92-38.49-2.53a27.42,27.42,0,0,1-2.06,6.31c-1,2.54-2.53,4.91-3.77,7.43a22.79,22.79,0,0,0-1.66,4.39c.58-.68,1.2-1.31,1.78-2,.16-.21.5,0,.38.19a10.18,10.18,0,0,0-1.11,3.25,12,12,0,0,1,1.5-1.34c.18-.14.47,0,.35.24-2.45,3.88-2.45,8.73-1,12.91a30.82,30.82,0,0,0,3.24,6.34c1.58,1.63,3.09,3.28,4.6,5a35.24,35.24,0,0,1,4.2,5.46,25.93,25.93,0,0,1,2.16,4.77c-.14-.94-.34-1.85-.57-2.78,0-.17.22-.33.37-.18a21.07,21.07,0,0,1,4.19,6.16A7.64,7.64,0,0,1,43,87.86a.23.23,0,0,1,.32-.07.14.14,0,0,1,.08.07,20.57,20.57,0,0,0,5,8.14,13.75,13.75,0,0,1,3-7.92.23.23,0,0,1,.33,0,.24.24,0,0,1,.09.15c.13.9.22,1.82.3,2.72A14.9,14.9,0,0,1,55,87.45a.22.22,0,0,1,.32,0,.18.18,0,0,1,0,.16c-.15.77-.34,1.53-.54,2.29a60.07,60.07,0,0,1,7.44-7.35,98.38,98.38,0,0,0,7.31-7.13A23.26,23.26,0,0,0,74,67.7a20.9,20.9,0,0,0-1.22-14.37.18.18,0,0,1-.15-.13" transform="translate(0 0)"/><path class="cls-3" d="M35.08,55.12S38.34,68.8,48.66,68.85c9,0,13.53-14.22,13.53-14.22l-13.45-9Z" transform="translate(0 0)"/><path class="cls-4" d="M53.52,42a1,1,0,0,1-.09.88c-.36.52-1.22.61-1.78.65a22.36,22.36,0,0,1-4.24-.37,9.16,9.16,0,0,1-3.47-.91A.55.55,0,0,1,43.7,42a.45.45,0,0,1,0-.28,3.24,3.24,0,0,1,1.41-1.56,6.07,6.07,0,0,1,4.12-.63,6.63,6.63,0,0,1,3.09.93A3.46,3.46,0,0,1,53.52,42" transform="translate(0 0)"/><g class="cls-5"><polygon class="cls-6" points="30.59 57.58 53.29 45.76 66.37 70.71 43.66 82.54 30.59 57.58"/></g><path class="cls-7" d="M48.3,52.65c-2.22.09-6.86,3-8.24,3.48a34.09,34.09,0,0,1,.62,5.41c.11,3.78-.5,13.11,7.86,13.6s7.26-10.76,7.31-13a27,27,0,0,1,.91-4.89C55.29,56.6,51.65,52.53,48.3,52.65Z" transform="translate(0 0)"/><g class="cls-8"><g class="cls-9"><g class="cls-10"><g class="cls-9"><g class="cls-10"><g class="cls-9"><path class="cls-11" d="M34.45,54l-.27-.26a7.72,7.72,0,0,1-.29,1.43c-.24.28-.09.55.28.84a5.64,5.64,0,0,0,.7.42c.28.15.58.28.9.42a2.4,2.4,0,0,0-.16-1.4,3.16,3.16,0,0,0-.42-.71A4.39,4.39,0,0,0,34.5,54" transform="translate(0 0)"/><path class="cls-12" d="M32.86,42.62l-.44.33v.12c.15-.16.3-.31.44-.47" transform="translate(0 0)"/><path class="cls-11" d="M31.83,49.91a1.41,1.41,0,0,0,.83.44,2.53,2.53,0,0,1,.78.08,5.61,5.61,0,0,1-.28-1.81v-1c0-.35-.11-.68-.17-1a.87.87,0,0,1-.77-.09c.06.29.07.29.28.23l-.41.11h-.24a1,1,0,0,0,.06.48,1.45,1.45,0,0,0,.26.47,1.67,1.67,0,0,0,.38.37,1.39,1.39,0,0,0,.4.21l-.63.18-.69.15a2.88,2.88,0,0,0,.16.75,1.58,1.58,0,0,0,.37.36h-.24" transform="translate(0 0)"/><path class="cls-11" d="M38.32,63.69a2.56,2.56,0,0,1-.2-.26,5.47,5.47,0,0,1-1,.63c.22.3.47.6.72.91a6,6,0,0,1,.61-.35l.06.34a.63.63,0,0,1-.26.41h0l.43.48a2.1,2.1,0,0,0-.11-.45l.34.12a1.63,1.63,0,0,0,.31.11c.18,0,.33,0,.39-.3-.09-.55-.76-1-1.29-1.69" transform="translate(0 0)"/><path class="cls-13" d="M78.45,33.6a6.44,6.44,0,0,0-3-3.32,4,4,0,0,0-4,0c-2.62,1.16-5.15,2.32-7.82,3.6a4.19,4.19,0,0,1,.16,4.37,1.29,1.29,0,0,1-1,.55c-.4.05-.76.09-.81.42a19.29,19.29,0,0,0-1,2.54,6.67,6.67,0,0,1-1.43,2.33c.39.27.7,1.2,1,1,1.16.41,2.43.12,3.46-1.76.29-.53,1.58.6.78,1.56,1.27-.31,1.86-1.4,2.7-2,2.33-1.86,1.63,2.06,2.94,3.13a1.42,1.42,0,0,0,.84.6c1.29-2.34,2.29-5.05,3.5-7.37.29-.55,1.11-.06,1.4-.61A11.22,11.22,0,0,0,78,36a3.27,3.27,0,0,0,.47-2.42" transform="translate(0 0)"/><path class="cls-14" d="M54.07,39.86a6,6,0,0,1,1.12-1.58c-.86-.22-1.7-.46-2.5-.72-.12.39-.24.79-.34,1.18a1.79,1.79,0,0,1,.87.28,3.09,3.09,0,0,1,.85.84" transform="translate(0 0)"/><path class="cls-14" d="M69.35,48.68c-.24-1.58-.95-1.26-1.85-2.14-.88,1.64-1.81,1.81-2.89.79,0,.4-.52.42-.67.68,0-.4-.67-.78-.36-1.31-.31.53-.92.15-1,.81-.76-.12.2-1.32-.41-1.71-.81,1.66-1.9,2-2.74,1.52a2.83,2.83,0,0,1-1.28-2.77,27.24,27.24,0,0,0,.48-3.26c0-1.45,1.26-1.28,2.15-1.42-.45-.65-1.67-.41-1.3-1.59a9.57,9.57,0,0,0,1.1-2.83,23,23,0,0,0-2.32,2,3.44,3.44,0,0,1-1.91,1.1l-1.17-.27A6.26,6.26,0,0,0,54,39.91a2.92,2.92,0,0,0-.84-.84,1.68,1.68,0,0,0-.87-.27,5.13,5.13,0,0,0-.23,1.4c-.1.83.33,1,.89,1.15s1.25.14,1.65.64a4.45,4.45,0,0,0-1.39,3.13,5.22,5.22,0,0,0,.91,3.08,6.23,6.23,0,0,0,2.75,2,1.92,1.92,0,0,0,1.77-1c-.16.25-.64,1-.44,1.18a3.35,3.35,0,0,1,.93.29c.29.13.58.27.86.37a1.61,1.61,0,0,0,1.82-.47c0,.39.26.52-.06,1,.64-1,.71,1.19,1.35.11.67.78,1.13,2.91,2.19,2.05a1.7,1.7,0,0,1,.75-.48,10,10,0,0,1,2.25-2.85,11,11,0,0,0,1.8-2.06c-.32.21-.62.36-.76.09" transform="translate(0 0)"/><path class="cls-15" d="M70.46,46.15c-1.31-1.12-.61-5-2.94-3.14-.84.58-1.43,1.67-2.69,2,.79-1-.5-2.06-.79-1.56-1,1.87-2.3,2.16-3.46,1.75-.35.13-.66-.8-1-1a6.45,6.45,0,0,0,1.38-2.32,19.29,19.29,0,0,1,1-2.54c0-.33.4-.37.81-.42a1.29,1.29,0,0,0,1-.55,4.21,4.21,0,0,0-.13-4.5c-.92.45-1.87.91-2.83,1.4l-.25.18a9.41,9.41,0,0,1-1.1,2.83c-.37,1.18.85.94,1.3,1.59-.89.14-2.15,0-2.15,1.42a27.3,27.3,0,0,1-.51,3.26,2.82,2.82,0,0,0,1.28,2.76c.84.45,1.94.15,2.74-1.51.61.39-.35,1.59.41,1.71.1-.66.71-.28,1-.81-.31.53.31.91.36,1.31.15-.26.72-.28.67-.69,1,1,2.06.86,2.89-.79.9.89,1.61.57,1.85,2.15.14.28.44.12.76-.08a17.91,17.91,0,0,0,1.19-1.91,1.46,1.46,0,0,1-.84-.6" transform="translate(0 0)"/><path class="cls-16" d="M65.31,53.94c-1,.84-1.52-1.29-2.19-2.06-.64,1.08-.71-1.18-1.35-.11.32-.53.11-.67.06-1a1.6,1.6,0,0,1-1.82.48c-.28-.11-.57-.25-.86-.37a3.07,3.07,0,0,0-.93-.3c-.2-.14.28-.92.44-1.18a1.92,1.92,0,0,1-1.77,1,6.16,6.16,0,0,1-2.75-2.05,5.2,5.2,0,0,1-.91-3.08,4.45,4.45,0,0,1,1.43-3.13c-.4-.5-1.09-.51-1.64-.64s-1-.31-.9-1.15a5.13,5.13,0,0,1,.23-1.4,3.82,3.82,0,0,0-2.19.83c-.72.49-1.44,1.1-2.06,1.52,0,.56.17,1,.42,1.13a3.58,3.58,0,0,1,1.11,1.24,8.88,8.88,0,0,1,.63,1.57,13.24,13.24,0,0,0,.57,1.64,4.27,4.27,0,0,0,1,1.45c.37.34,1.27.34,1.46.49a4.43,4.43,0,0,1,.79,2.16,4.26,4.26,0,0,0,.79,2.14c0,.4,1-.69,1.32-.15.63.84.75,2.45,1.72,2.37a4.82,4.82,0,0,1,3.2,1,10.54,10.54,0,0,1,1.22,1.1l1.18,1.18c1-1.6,1.67-3.41,2.58-5a1.7,1.7,0,0,0-.75.48" transform="translate(0 0)"/></g></g></g></g></g><g class="cls-17"><g class="cls-10"><g class="cls-17"><g class="cls-10"><path class="cls-11" d="M63.64,34.33H64a7.66,7.66,0,0,1-.35-1.43c.1-.83-.92-.34-2.06.11a1.73,1.73,0,0,0,2,1.36h0" transform="translate(0 0)"/><path class="cls-12" d="M70.87,40.89l.22-.76L71,40.05a5.87,5.87,0,0,1-.13.84" transform="translate(0 0)"/><path class="cls-11" d="M67.58,35c-.76.18-1,.85-1.53,1.28a3.25,3.25,0,0,1,1.12,1,5.15,5.15,0,0,0,1.32,1.14,2,2,0,0,1,.71-.83c-.22-.12-.22-.12-.37.17l.45-.85c-.27-.51-1.22-.26-1.75.19l.89-1.65a5.91,5.91,0,0,0-.52-.35,2.54,2.54,0,0,0-.47.14Z" transform="translate(0 0)"/><path class="cls-11" d="M57.29,28.7l.24.11A8,8,0,0,1,58,27.67l-.78-.41c-.09.2-.18.39-.28.58a1.35,1.35,0,0,0-.15-.26,1.14,1.14,0,0,1,0-.52h0l-.45-.2c.08.11.15.23.22.35-.18.06-.36.06-.51.12s-.22.16-.18.46c.22.46.84.6,1.41.87" transform="translate(0 0)"/><path class="cls-18" d="M51.46,30.26A7.74,7.74,0,0,1,51.89,32c.31-.53,1.13,0,1.43-.53a3.2,3.2,0,0,0,.78,1.78,3.93,3.93,0,0,0,1.4.94c1,.45,2.16.67,2.74,1.38a4.45,4.45,0,0,0,2.25,1.12,9.54,9.54,0,0,1,2.34.69c.12-.39-.06-.84.33-1.18a.69.69,0,0,0-.94.23v0a.64.64,0,0,0-.14.22.64.64,0,0,1,.14-.22,3.12,3.12,0,0,1,.7-.66c-.11,0-.21,0-.24-.23a.61.61,0,0,1,.13-.31,7.3,7.3,0,0,1-1-.56,5.7,5.7,0,0,1-.91-.71,5.35,5.35,0,0,1-1.37-2.19h-.31a1.76,1.76,0,0,1-2-1.38v0a4.88,4.88,0,0,1-2.06.39,10.12,10.12,0,0,1-1.48-.63c-.48-.24-1-.53-1.46-.81a9.64,9.64,0,0,0-.48,1l-.23-.14" transform="translate(0 0)"/><path class="cls-13" d="M18.32,59.17a7.67,7.67,0,0,0,2.54,4,5.49,5.49,0,0,0,2,1,3.61,3.61,0,0,0,2.06,0L26,64.07l1.08-.2,2.19-.42L31.47,63l1.12-.27c.38-.09.76-.2,1.13-.31a4,4,0,0,1,.4-4.39,1.4,1.4,0,0,1,1.2-.38c.44,0,.83,0,.91-.32a16.17,16.17,0,0,0,1.38-2.43,8.84,8.84,0,0,1,.67-1.11,6.78,6.78,0,0,1,1-1.11c-.41-.29-.66-1.25-1-1.15a2.81,2.81,0,0,0-1.85-.17,3.68,3.68,0,0,0-1.92,1.51c-.36.49-1.57-.86-.66-1.69-1.32.1-2.05,1-3,1.48-1.32.67-1.67.07-1.84-.85s-.18-2.2-.77-2.89a1.69,1.69,0,0,0-.77-.79l-.59.78-.56.79c-.38.53-.76,1.08-1.13,1.63s-.76,1.11-1.14,1.64-.76,1-1.16,1.53-1.14-.23-1.51.24a8.92,8.92,0,0,0-1.18.95,9.87,9.87,0,0,0-1,1.2,3,3,0,0,0-.82,2.28" transform="translate(0 0)"/><path class="cls-15" d="M28.24,48.92c.59.69.59,2,.77,2.89s.52,1.52,1.84.85c1-.36,1.66-1.38,3-1.47-.92.81.29,2.17.65,1.68a3.77,3.77,0,0,1,1.92-1.51,2.87,2.87,0,0,1,1.85.17c.38-.1.63.86,1,1.15a6.78,6.78,0,0,0-1,1.11,8.84,8.84,0,0,0-.67,1.11,16.17,16.17,0,0,1-1.38,2.43c-.08.33-.47.32-.91.32a1.4,1.4,0,0,0-1.2.38,4,4,0,0,0-.4,4.39L35.39,62l.82-.24.84-.29.3-.14a9.66,9.66,0,0,1,1.52-2.76c.52-1.15-.85-1-1.27-1.72h1.18l.38-.06a1.16,1.16,0,0,0,.9-1.19,32.65,32.65,0,0,1,.77-3.25,2.81,2.81,0,0,0-1.22-2.84,1.62,1.62,0,0,0-1.42-.13,2,2,0,0,0-.76.48,3.88,3.88,0,0,0-.75.92c-.6-.47.48-1.55-.29-1.76-.16.64-.75.18-1.11.68.36-.5-.24-1-.26-1.37-.19.25-.75.19-.73.59a3.36,3.36,0,0,0-.75-.66,1.32,1.32,0,0,0-.75-.2c-.49,0-1,.39-1.52,1.12-.8-1-1.54-.88-1.62-2.49-.11-.3-.42-.22-.76-.09a18,18,0,0,0-1.42,1.6,1.69,1.69,0,0,1,.77.79" transform="translate(0 0)"/><path class="cls-19" d="M66.14,53.82a9.45,9.45,0,0,1,1.37-1.16,5.59,5.59,0,0,1-3.09-.76A6.57,6.57,0,0,1,63.19,51a10.72,10.72,0,0,1-1.12-1.22c-.25-.32-1.14.2-2.06.58a5.2,5.2,0,0,1-.72.26,2.65,2.65,0,0,1-.68.09,1.15,1.15,0,0,1-1-.57,3,3,0,0,1,1-2.31,7.09,7.09,0,0,1-4.07-2.67l-.79-.9c-.26-.3-.53-.59-.81-.86A5.5,5.5,0,0,0,51.09,42,9.86,9.86,0,0,1,49,41a11.84,11.84,0,0,1-4.53-6c-.43-1.46-2.06-1.56-3.54-2.06l-.56.93-.56.89a7.77,7.77,0,0,1,1.2.94,3.43,3.43,0,0,1,.85,1.17A10.6,10.6,0,0,0,44,40.54a6,6,0,0,0,3.44,1.75c1,.28,1.1,3.34,1.72,3.75a13.4,13.4,0,0,1,1.74,1.56c.53.54,1,1,1.52,1.58,1,1.08,1.87,2.21,2.89,3.4a6.15,6.15,0,0,0,.89,1c.39.32.79.62,1.21.9.56-.26,1.11-.57,1.67-.83a7,7,0,0,1,.85-.36,5.24,5.24,0,0,1,.88-.26,2.06,2.06,0,0,1,2.91.08.91.91,0,0,1,.18.21c.7.7,1.26,1.46,2.21.57" transform="translate(0 0)"/><path class="cls-20" d="M41.36,41.68c.94-.06,1,1.54,1.71,2.38.24.55,1.29-.6,1.32-.2,1,1.12.65,3.08,1.71,4.19.2.15,1.16,0,1.57.34a5.71,5.71,0,0,1,1.88,2.89A3.66,3.66,0,0,0,51.7,53.7c.31,0,.47.46.56,1h0c0,1.2,1,.65,1.34.5,1.32-.7,2-.45,3.2-.5l.64-.25c-.42-.28-.82-.58-1.21-.9a6.15,6.15,0,0,1-.89-.95c-1-1.26-1.89-2.38-2.92-3.47-.49-.53-1-1-1.53-1.58A18,18,0,0,0,49.15,46c-.62-.53-.73-3.47-1.71-3.75A5.94,5.94,0,0,1,44,40.52a10.74,10.74,0,0,1-2.16-3.71,3.55,3.55,0,0,0-.75-1.17,8.36,8.36,0,0,0-1.2-.93,11.58,11.58,0,0,1-1,1.34c-.38.4-1.12-.1-1.12-.1a9,9,0,0,0-1.67,2,24.26,24.26,0,0,0,2.21,2.53,4.92,4.92,0,0,0,1.36.89,4.23,4.23,0,0,0,1.72.34" transform="translate(0 0)"/><path class="cls-21" d="M69.12,51.82a4.65,4.65,0,0,1,.76-.9c.7-.76.82,0,1.21-.15l-.22-.1.26-.11a4.82,4.82,0,0,1-1.41-2.24c-.48.28-.92.38-1.24.06-1-1.09-2.06-2.4-3.18-3.37a5.68,5.68,0,0,0-4.5-1.46c-.77.1-1-1-1.35-2s-.8-2.29-2-2.45a8.07,8.07,0,0,0-1.38.14,1.09,1.09,0,0,1-1.18-.59c-.56-1.46-.08-3.7-1.64-4a9.61,9.61,0,0,1-1.4-.19,10.48,10.48,0,0,1-1.34-.33,10.88,10.88,0,0,1-2.45-1.19,8.72,8.72,0,0,1-1-.81,8.36,8.36,0,0,1-.91-1,8.45,8.45,0,0,1-1.41-2.45,3.32,3.32,0,0,0-1.94,1.4A24,24,0,0,0,41,32.86c1.45.54,3.09.64,3.54,2.06a11.45,11.45,0,0,0,2.65,4.39A11.25,11.25,0,0,0,49,41a9.86,9.86,0,0,0,2.06,1.08,5.44,5.44,0,0,1,1.84,1.26c.28.27.55.56.81.86l.79.9a7.13,7.13,0,0,0,4.07,2.68,3,3,0,0,0-1.13,2.31,1.18,1.18,0,0,0,1,.57,2.59,2.59,0,0,0,.68-.09,4.41,4.41,0,0,0,.72-.26c1-.38,1.84-.9,2.06-.58A11.83,11.83,0,0,0,63.09,51a6.26,6.26,0,0,0,1.23.94,5.59,5.59,0,0,0,3.09.76A8,8,0,0,1,69,51.82" transform="translate(0 0)"/><path class="cls-12" d="M53.27,34.63c1.56.26,1.08,2.5,1.64,4a1.09,1.09,0,0,0,1.18.59A8.07,8.07,0,0,1,57.47,39c1.18.16,1.63,1.33,2,2.45s.58,2.16,1.35,2A5.68,5.68,0,0,1,65.3,45c1.16,1,2.06,2.28,3.18,3.37.32.32.76.22,1.24-.06a6,6,0,0,1-.22-1.25c-.11-.79-1.75-.88-2.63-1.34-.79-1.17-.35-2.67.11-4.1l.15-.83.07.08a4.31,4.31,0,0,0,.16-.59,9.93,9.93,0,0,1-1-.52.57.57,0,0,1-.31.07l.11-.2a5.12,5.12,0,0,1-1.36-1.18,3.13,3.13,0,0,0-1.11-1,1.67,1.67,0,0,1-.38.25.71.71,0,0,0,.23-.34,5.84,5.84,0,0,0-1.12-.42l-1.2-.27a4.39,4.39,0,0,1-2.26-1.11,2.26,2.26,0,0,0-.53-.44,4.32,4.32,0,0,0-.68-.34c-.48-.2-1-.37-1.54-.59A3.21,3.21,0,0,1,54,31.45c-.3.54-1.13,0-1.44.54a7.21,7.21,0,0,0-.42-1.72c-.57-.3-1.17-.46-1.4-.93-.07-.58.35-.44.7-.55l-.21-.36-.15-.07a1.83,1.83,0,0,0-.47.63c-.09.54-.2,1-.28,1.54A2.83,2.83,0,0,1,50.61,29c0-.26.07-.54.09-.81A7.33,7.33,0,0,0,49,27.67c-.09.11-.16.23-.24.35l.2-.35h-.25l-1.53,2.6c-.91-1.24-1.68-1.65-2.42-1.57a8.52,8.52,0,0,0,1.38,2.41,8.36,8.36,0,0,0,.91,1,8.72,8.72,0,0,0,1,.81,10.43,10.43,0,0,0,2.45,1.18,9.07,9.07,0,0,0,1.34.34,9.42,9.42,0,0,0,1.4.19" transform="translate(0 0)"/></g></g></g></g></g><g class="cls-22"><g class="cls-23"><path class="cls-24" d="M48.64,53.65l0,.28c0,.17.1.45.16.81a27.73,27.73,0,0,1,.33,3.16c.08,1.64.08,3.29,0,4.94-.1,1.89-.28,4-.46,6.36v-.35a7.42,7.42,0,0,0-.06-1c0-.85-.09-2-.09-3.54s0-3.16.09-5c0-.9,0-1.83.05-2.79s0-1.92,0-2.89" transform="translate(0 0)"/></g></g><path class="cls-25" d="M64.77,14.2a44.13,44.13,0,0,0-6.17-.8,31,31,0,0,1,4.28-3.29c.19-.14.65-.69.23-.86-2.51-.94-6.43.72-8.58,1.92a14.09,14.09,0,0,0-3.21,2.59,13.82,13.82,0,0,0,1.61-7.18c-.07-.82-1.22,0-1.32.45a7.6,7.6,0,0,1-3,4.1,10.33,10.33,0,0,0,.72-1.84c.83-3-.11-7.49-3.09-9-.22-.11-.56.28-.42.48,1.54,2.12,0,6.16-1.57,7.93a25,25,0,0,1-8,3.32" transform="translate(0 0)"/><path class="cls-26" d="M48.54,54.56C40.15,62.27,33.89,53,33.89,53S31,50,38.52,41.37c0,0,9-8.81,20-.17,9.44,7.45,4.64,11.61,4.64,11.61S60,61.62,48.39,53.93" transform="translate(0 0)"/><path class="cls-27" d="M63.74,51.19S62.31,57.34,56,57.34s-6.72-3.6-7.1-4" transform="translate(0 0)"/><path class="cls-27" d="M33.8,51.19s1.43,6.15,7.8,6.15,6.76-3.6,7.14-4" transform="translate(0 0)"/><path class="cls-28" d="M53.21,49a4.08,4.08,0,0,1-1,1.2,3.6,3.6,0,0,1-1.1.43,12.36,12.36,0,0,1-3.48.34,4.3,4.3,0,0,1-1.9-.43,5.34,5.34,0,0,1-1.62-1.69l-1.24-1.75a.73.73,0,0,1-.18-.54c0-.21.26-.33.46-.41a10.38,10.38,0,0,1,3.45-.55,29.83,29.83,0,0,1,5.67.06c.68.09,1.89.13,2.06,1s-.66,1.77-1,2.37" transform="translate(0 0)"/><path class="cls-29" d="M51.33,50.37a1.25,1.25,0,0,0,1-1.21c0-.29-.22-.61-.52-.59a2.54,2.54,0,0,0-.45.13c-.4.08-.75-.3-.89-.67a1.58,1.58,0,0,1,0-1.28,1.08,1.08,0,0,1,1-.58.81.81,0,0,1,.69.92v0c0,.17-.14.39,0,.51a.37.37,0,0,0,.22.08A2.52,2.52,0,0,0,54,47.27c1-.71.86-2.05.71-3.07a3.32,3.32,0,0,0-2.3-3c-2.9-1.3-6.72-1.57-9.2.76A3.6,3.6,0,0,0,42,44.47c0,1,.08,2.58,1,3.22a1.16,1.16,0,0,0,1.56-.2c.22-.31.25-.79.6-.94a.87.87,0,0,1,.86.26,1.52,1.52,0,0,1,.54.86.7.7,0,0,1-.5.81,1.78,1.78,0,0,1-.78-.21c-.24-.09-.6-.07-.7.18a.61.61,0,0,0,0,.27c.2,1.35,2.71,3.08,3.55,1.27a1.84,1.84,0,0,0,.12-.66A16.84,16.84,0,0,0,48.44,47a22.81,22.81,0,0,0,.32,3.08.56.56,0,0,0,.12.3.61.61,0,0,0,.22.13,3.59,3.59,0,0,0,2.22-.17" transform="translate(0 0)"/><g class="cls-30"><g class="cls-31"><path class="cls-32" d="M29.77,57.37c0-2.62.55-5.25.39-7.88-.32-5.22-2.38-10.13-3.7-15.2-1-3.93-1.71-8.06-.95-12.06a15.28,15.28,0,0,1,2.29-5.62,22.12,22.12,0,0,0-6,5.84c-.09.15,0,.19.15.17a3.09,3.09,0,0,0-.14.32c-2.23,5.22,1.95,10.67,0,16a16.59,16.59,0,0,0-.59,5.56,8.42,8.42,0,0,0,.12,1.42,22.08,22.08,0,0,0,2.24,6c1.51,2.92,4.12,5.68,6.42,8.51a13.81,13.81,0,0,1-.29-3.08" transform="translate(0 0)"/></g></g><path class="cls-2" d="M32.53,13.62s-6.18-2.06-10-.74-4.8,4.52-7,5.55S3.64,24,3.3,29.49l.19.81a8.16,8.16,0,0,1,2.37-2.24,5.87,5.87,0,0,0-1.24,4.4l1.29-1.09s-1,1.09.38,6,8.92,17.9,6.64,25-2.06,8.57,2.28,8.21S26.68,68.07,28.4,59,26,35.69,23.75,33.83L26,35.69s-.67-3.79-2.76-5l2.06,1.24s-2.46-11-.57-12.91Z" transform="translate(0 0)"/><path class="cls-33" d="M27.54,14.66a12.35,12.35,0,0,0-3,5s0-4,3-5" transform="translate(0 0)"/><path class="cls-33" d="M17.48,16.69c-3,3.14-4,7.23-7.64,10-.08.07,0,.17.08.11a15.51,15.51,0,0,0,4.2-4.19c1.45-1.86,2.15-4,3.48-5.91,0-.09-.07-.08-.12,0" transform="translate(0 0)"/><g class="cls-34"><path class="cls-35" d="M15.51,53.21a24.19,24.19,0,0,0-2.76-6.79c-2.55-4.38-5.94-9.94-5-14.87,0-.07-.14,0-.15,0-1.79,4.59,1,9.5,3.25,13.68C13.45,50.09,16.39,55.5,16,60.82c0,.14.29,0,.31-.1.45-2.6-.29-5-.82-7.55" transform="translate(0 0)"/></g><g class="cls-30"><g class="cls-36"><path class="cls-32" d="M66.83,57.37c0-2.62-.56-5.25-.39-7.88.32-5.22,2.38-10.13,3.7-15.2,1-3.93,1.71-8.06,1-12.06a15.28,15.28,0,0,0-2.29-5.62,22.12,22.12,0,0,1,6,5.84c.09.15,0,.19-.15.17a3.09,3.09,0,0,1,.14.32c2.24,5.22-1.94,10.67,0,16a16.59,16.59,0,0,1,.59,5.56,8.42,8.42,0,0,1-.12,1.42,22.08,22.08,0,0,1-2.24,6c-1.51,2.92-4.12,5.68-6.42,8.51a13.81,13.81,0,0,0,.29-3.08" transform="translate(0 0)"/></g></g><path class="cls-2" d="M64.07,13.62s6.18-2.06,10-.74,4.8,4.52,7,5.55S93,24,93.3,29.45l-.19.81A8,8,0,0,0,90.74,28,5.87,5.87,0,0,1,92,32.42l-1.29-1.09s1,1.09-.38,6-8.92,17.9-6.64,25,2.06,8.57-2.28,8.21S69.92,68.07,68.2,59s2.37-23.34,4.65-25.2l-2.28,1.86s.67-3.79,2.76-5L71.27,31.9s2.46-11,.57-12.91Z" transform="translate(0 0)"/><path class="cls-33" d="M69.06,14.66a12.48,12.48,0,0,1,3.09,5s0-4-3.09-5" transform="translate(0 0)"/><path class="cls-33" d="M79.12,16.69c3,3.14,4,7.23,7.64,10,.08.07,0,.17-.08.11a15.51,15.51,0,0,1-4.2-4.19c-1.45-1.86-2.15-4-3.48-5.91,0-.09.08-.08.12,0" transform="translate(0 0)"/><g class="cls-37"><path class="cls-35" d="M80.91,53.21a23.61,23.61,0,0,1,2.76-6.79c2.52-4.42,5.94-9.94,5-14.87,0-.07.15,0,.16,0,1.79,4.59-1,9.5-3.26,13.68C83,50.09,80,55.5,80.42,60.82c0,.14-.28,0-.31-.1-.45-2.6.29-5,.83-7.55" transform="translate(0 0)"/></g><path class="cls-38" d="M65.46,35.66A3.67,3.67,0,1,1,61.79,32h0a3.66,3.66,0,0,1,3.65,3.65" transform="translate(0 0)"/><path class="cls-39" d="M64.84,35.66a3,3,0,1,1-3.05-3h0a3,3,0,0,1,3,3" transform="translate(0 0)"/><path class="cls-40" d="M63.86,34.4a1.25,1.25,0,1,1-1.25-1.24h0a1.24,1.24,0,0,1,1.24,1.23h0" transform="translate(0 0)"/><path class="cls-38" d="M39.14,35.66A3.66,3.66,0,1,1,35.48,32h0a3.67,3.67,0,0,1,3.66,3.65" transform="translate(0 0)"/><path class="cls-39" d="M38.51,35.66a3,3,0,1,1-3-3h0a3,3,0,0,1,3,3v0" transform="translate(0 0)"/><path class="cls-40" d="M37.54,34.4a1.25,1.25,0,1,1-1.25-1.24h0a1.25,1.25,0,0,1,1.25,1.24" transform="translate(0 0)"/></g><rect class="cls-1" width="96" height="95.71"/></svg>