<?xml version="1.0" encoding="utf-8"?>
<!-- Generator: Adobe Illustrator 25.3.1, SVG Export Plug-In . SVG Version: 6.00 Build 0)  -->
<svg version="1.1" id="レイヤー_1" xmlns="http://www.w3.org/2000/svg" xmlns:xlink="http://www.w3.org/1999/xlink" x="0px"
	 y="0px" viewBox="0 0 96 96" style="enable-background:new 0 0 96 96;" xml:space="preserve">
<style type="text/css">
	.st0{clip-path:url(#SVGID_2_);}
	.st1{fill:#E7CC00;}
	.st2{fill:#231815;}
	.st3{fill:#4D5154;}
	.st4{fill:url(#SVGID_4_);stroke:#231815;stroke-width:1.1146;stroke-miterlimit:10;}
	.st5{clip-path:url(#SVGID_5_);}
	.st6{opacity:0.9;}
	.st7{fill:#FFEDF2;}
	.st8{fill:#FFE8EE;}
	.st9{fill:#FFECF1;}
	.st10{fill:#FFD3DF;}
	.st11{fill:#FFD8E2;}
	.st12{fill:#FFD5E0;}
	.st13{fill:#FFD9E3;}
	.st14{fill:#FFE1E9;}
	.st15{fill:#FFDDE6;}
	.st16{fill:#FFE4EB;}
	.st17{opacity:0.61;fill:#A82419;}
	.st18{fill:#EFCC00;}
	.st19{fill:#CC9900;}
	.st20{fill:none;stroke:#231815;stroke-width:1.4502;stroke-linecap:round;stroke-miterlimit:10;}
	.st21{fill:#010C1C;}
	.st22{fill:#1E2A2C;}
	.st23{opacity:0.8;fill:#E5B78A;}
	.st24{fill:#A96744;}
	.st25{fill:#CE8756;}
	.st26{fill:#333333;}
	.st27{fill:#FFFFFF;}
</style>
<g>
	<defs>
		<circle id="SVGID_1_" cx="48" cy="48" r="48"/>
	</defs>
	<use xlink:href="#SVGID_1_"  style="overflow:visible;fill:#EFCC00;"/>
	<clipPath id="SVGID_2_">
		<use xlink:href="#SVGID_1_"  style="overflow:visible;"/>
	</clipPath>
	<g class="st0">
		<path class="st1" d="M83.9,54.6c0-0.1-0.1-0.3-0.1-0.4c-0.1-0.2,0.2-0.5,0.5-0.3c0,0,0.1,0.1,0.1,0.1c0,0,0,0,0,0
			c0.8,0.5,1.5,1.2,2.1,1.9c-0.3-1.3-0.7-2.5-1.3-3.7c-0.1-0.3,0.3-0.4,0.5-0.3c1,0.5,1.6,1.2,2.2,2c-0.2-2-1-4-1.9-5.6
			c-1.6-2.9-3.8-5.5-5.6-8.3c-1.2-1.8-2.1-3.6-2.7-5.4c-0.4-0.8-0.8-1.6-1.1-2.4c-3-8.6-54.4-14.7-56.8-3.7c-0.7,3.1-1.5,6.4-3,9.3
			c-1.5,3.8-3.7,7.3-5.6,11c-1.1,2.1-1.9,4.3-2.5,6.5c0.9-1,1.8-1.9,2.6-2.9c0.3-0.3,0.8,0,0.6,0.3c-0.8,1.6-1.4,3.2-1.6,4.8
			c0.7-0.7,1.4-1.4,2.2-2c0.3-0.2,0.7,0.1,0.5,0.4C9.4,61.6,9.4,68.8,11.5,75c1.1,3.3,2.9,6.4,4.8,9.4c2.3,2.4,4.6,4.9,6.8,7.4
			c2.3,2.6,4.5,5.2,6.2,8.1c1.3,2.2,2.4,4.6,3.2,7c-0.2-1.4-0.5-2.7-0.8-4.1c-0.1-0.3,0.3-0.5,0.6-0.3c2.6,2.7,4.7,5.8,6.2,9.2
			c0.1-2,0.8-4.1,1.9-5.6c0.1-0.2,0.5-0.2,0.6,0.1c1.6,4.4,3.9,8.7,7.4,12c0.1-4.1,1.7-8.4,4.4-11.7c0.2-0.3,0.6-0.1,0.6,0.1
			c0.2,1.3,0.3,2.7,0.4,4c1-1.9,2.8-3.8,4.3-5.1c0.2-0.2,0.6,0,0.6,0.3c-0.2,1.1-0.5,2.3-0.8,3.4c3.1-4,7.1-7.4,11-10.9
			c3.8-3.4,7.4-6.9,10.8-10.6c2.8-3.6,5.2-7.4,6.4-11.6c2-6.9,1.3-14.7-1.8-21.2C84,54.8,83.9,54.7,83.9,54.6z"/>
		<path class="st1" d="M90.7,42c-1.1-4.9-2.8-9.8-3.2-14.9C87,22,88.6,17.1,88.5,12c0-1.4-0.4-2.8-0.7-4.1c-0.4-1.3-0.8-3.1-1.6-4.3
			c-2-2.8-19.2-12.7-21.4-13.2c-1.5-0.4-3-0.4-4.6-0.6c0.9-0.9,2-1.6,3.1-2.4c0.1-0.1,0.5-0.5,0.2-0.6c-1.8-0.7-4.7,0.5-6.3,1.4
			c-0.9,0.5-1.6,1.1-2.3,1.9c0.8-1.6,1.3-3.3,1.2-5.1c0-0.6-0.9,0-1,0.3c-0.3,1.2-1.2,2.1-2.2,2.9c0.2-0.4,0.4-0.9,0.5-1.3
			c0.6-2.1-0.1-5.4-2.3-6.4c-0.2-0.1-0.4,0.2-0.3,0.3c1.1,1.5,0,4.4-1.1,5.7c-1.7,1.2-3.8,1.8-5.9,2.4C41-10.4,22.3-3.5,20.6-2.4
			c-1.9,1.2-3.4,2.8-5.1,4.2C12.1,4.7,9,8.1,7,11.9c-0.1,0.2,0,0.3,0.2,0.3c-0.1,0.2-0.1,0.3-0.2,0.5c-2.9,8.5,3.2,17.1,0.8,25.7
			c-0.8,2.9-0.6,6-0.5,9c0,0.8,0.1,1.5,0.2,2.3c0.7,3.4,1.9,6.5,3.4,9.6C16.3,70.6,30.4,80.1,27.5,94c0,0.2,0.1,0.3,0.3,0.2
			c1-0.2,1.6-1.6,2-2.5c0.3,1.8,1,4.3,2.6,5.1c0.3,0.1,0.6-0.3,0.6-0.5c-0.5-1.7-0.5-3.5-0.1-5.2c0,0.9,0.1,1.8,0.4,2.7
			c0.7,2.4,2.9,4.2,5,5.6c2.1,1.4,4.9,8,7.6,10.7c2.1,2,5.6-8.1,8.5-8.7c2.7-0.5,0.2,6,2.6,4.8c1-0.5,7.2-8.5,7.9-9.3
			c0.9-1,2-1.7,2.9-2.7c1.8-2,3.2-4.1,3.9-6.4c0,1.1,0,2.1,0,3.2c0,0.3,0.5,0.1,0.6-0.1c0.9-1.3,1.5-3,1.7-4.8
			c0.2,0.9,0.3,1.8,0.4,2.8c0,0.3,0.4,0.1,0.6,0c1.4-1.2,1.8-3.7,2-5.3c0.5-3.4,0.2-6.8,1.1-10.1c2.7-9.8,13.3-17.1,13.1-27.7
			C91.1,44.6,90.9,43.3,90.7,42z"/>
		<path class="st2" d="M28.5,57.5c0,0,4.8,20.3,20.1,20.3c13.2,0.1,20-21.1,20-21.1L48.6,43.4L28.5,57.5z"/>
		<path class="st3" d="M55.7,38.1c0.1,0.5,0.1,0.9-0.1,1.3c-0.5,0.8-1.8,0.9-2.6,1c-2.1,0.2-4.2-0.3-6.3-0.5
			c-1.8-0.2-3.6-0.5-5.1-1.4c-0.2-0.1-0.3-0.2-0.4-0.4c0-0.1,0-0.3,0.1-0.4c0.4-1,1.2-1.8,2.1-2.3c1.8-1.1,4-1.3,6.1-1
			c1.6,0.3,3.1,0.4,4.6,1.4C54.5,36.3,55.4,37.2,55.7,38.1z"/>
		<g>
			
				<linearGradient id="SVGID_4_" gradientUnits="userSpaceOnUse" x1="269.814" y1="-352.7012" x2="244.8878" y2="-396.3224" gradientTransform="matrix(0.9992 3.772854e-02 -3.772854e-02 0.9992 -223.1489 432.4258)">
				<stop  offset="0" style="stop-color:#FF9949"/>
				<stop  offset="1" style="stop-color:#FF211C"/>
			</linearGradient>
			<path class="st4" d="M48,53.8c-3.3,0.1-10.1,4.4-12.2,5.2c0.4,2.1,0.8,5.1,0.9,8c0.2,5.6-0.8,19.4,11.6,20.1
				c12.4,0.7,10.7-15.9,10.8-19.2c0-1.5,0.6-4.4,1.3-7.2C58.3,59.7,52.9,53.6,48,53.8z"/>
			<g>
				<defs>
					<path id="SVGID_3_" d="M48,53.8c-3.3,0.1-10.1,4.4-12.2,5.2c0.4,2.1,2.1,7.4,2.1,10.3c0.2,5.6-2,17.1,10.4,17.8
						c12.4,0.7,10.7-15.9,10.8-19.2c0-1.5,0.6-4.4,1.3-7.2C58.3,59.7,52.9,53.6,48,53.8z"/>
				</defs>
				<clipPath id="SVGID_5_">
					<use xlink:href="#SVGID_3_"  style="overflow:visible;"/>
				</clipPath>
				<g class="st5">
					<g>
						<g class="st6">
							<g class="st6">
								<path class="st7" d="M27.6,55.9c-0.1-0.1-0.3-0.3-0.4-0.4c-0.1,0.7-0.3,1.4-0.5,2.1c-0.3,0.4-0.1,0.8,0.4,1.2
									c0.3,0.2,0.6,0.4,1,0.6c0.4,0.2,0.9,0.4,1.3,0.6c0.1-0.7,0.1-1.4-0.2-2.1c-0.1-0.3-0.4-0.7-0.6-1
									C28.3,56.6,28,56.2,27.6,55.9z"/>
								<path class="st8" d="M25.2,39c-0.2,0.2-0.4,0.3-0.6,0.5c0,0.1,0,0.1,0,0.2C24.8,39.4,25,39.2,25.2,39z"/>
								<path class="st7" d="M23.7,49.8c0.4,0.4,0.8,0.6,1.2,0.7c0.4,0,0.8,0,1.1,0.1c-0.3-0.8-0.4-1.7-0.4-2.7c0-0.3,0-0.5-0.1-0.8
									c0-0.3-0.1-0.5-0.1-0.8c-0.1-0.5-0.2-1-0.3-1.5c-0.3,0.1-0.8,0.1-1.1-0.1c0.1,0.4,0.1,0.4,0.4,0.3c-0.2,0-0.4,0.1-0.6,0.2
									c-0.2,0.1-0.4,0.1-0.4,0.1c0,0.2,0,0.5,0.1,0.7c0.1,0.2,0.2,0.5,0.4,0.7c0.2,0.2,0.4,0.4,0.6,0.6c0.2,0.1,0.4,0.3,0.6,0.3
									c-0.3,0.1-0.6,0.2-0.9,0.3c-0.3,0.1-0.7,0.2-1,0.2c0.1,0.4,0.1,0.7,0.2,1.1c0.2,0.2,0.4,0.4,0.5,0.5c0,0-0.1,0-0.2,0
									C23.8,49.7,23.7,49.8,23.7,49.8z"/>
								<path class="st7" d="M33.3,70.2c-0.1-0.1-0.2-0.3-0.3-0.4c-0.4,0.4-0.9,0.7-1.4,0.9c0.3,0.4,0.7,0.9,1.1,1.3
									c0.2-0.2,0.5-0.3,0.8-0.5c0,0.2,0.1,0.3,0.1,0.5c-0.1,0.2-0.1,0.4-0.4,0.6c0,0,0,0,0,0c0.2,0.2,0.4,0.5,0.6,0.7
									c-0.1-0.2-0.1-0.4-0.2-0.7c0.2,0,0.3,0.1,0.5,0.2c0.2,0.1,0.3,0.1,0.5,0.1c0.3,0.1,0.5,0,0.6-0.4C35,71.9,34,71.1,33.3,70.2
									z"/>
								<path class="st9" d="M44,72.3c-0.1-0.9-0.2-1.8-0.1-2.7c-0.4,0.3-0.8,0.2-1.3,0c-0.5-0.2-0.9-0.3-1.3,0
									c0.1-1.2-0.1-2.2-0.6-3c-0.2-0.4-0.5-0.8-0.8-1.2c-0.3-0.4-0.7-0.7-1-1.1c-0.2-0.2-0.4-0.3-0.5-0.5
									c-0.2-0.2-0.4-0.3-0.5-0.5c-0.4-0.3-0.7-0.7-1-1c-0.6-0.7-1.1-1.3-1.4-2.1c-0.3-0.8-0.7-1.4-1.2-2c-0.2-0.3-0.4-0.6-0.7-0.8
									c-0.2-0.3-0.5-0.5-0.7-0.8c-0.9-1-1.9-2.1-2.5-3.4c-0.4,0.3-0.4,1.1-1.1,1.1c0.3,0.7,0.7,0.9,1.3,0.8c0.1,0,0.2-0.1,0.3-0.1
									C30.7,55,30.6,55,30.5,55c-0.2,0.1-0.4,0.1-0.6,0.1c-0.2,0-0.4,0-0.6-0.1c0.1,0.1,0.2,0.3,0.1,0.6c-0.1,0.1-0.2,0.2-0.3,0.2
									c0.6,1.2,1.2,2.4,1.7,3.7c0.5,1.3,0.8,2.7,0.7,4.3c0.2,0.1,0.3,0.2,0.5,0.3c0.5,0.3,0.9,0.6,1.2,0.9
									c0.3,0.3,0.6,0.6,0.8,0.9c0.4,0.6,0.5,1.3,0.4,2c0.6,0.2,1.3,0.3,1.9,0.5c0.3,0.1,0.6,0.2,0.9,0.3c0.3,0.1,0.5,0.2,0.8,0.4
									c1.5,1.2,2.9,2.6,4.4,4c0.2-0.2,0.5-0.4,0.7-0.6c0.2-0.2,0.4-0.4,0.6-0.7C43.7,72.1,43.8,72.2,44,72.3z"/>
								<path class="st10" d="M92.5,25.6c-0.8-2.1-2.5-3.9-4.4-4.9c-1.9-1-4.1-1.1-5.9,0c-3.9,1.7-7.6,3.4-11.5,5.3
									c1.1,1.6,1.5,4.1,0.2,6.5c-0.3,0.6-1,0.7-1.6,0.8c-0.6,0.1-1.1,0.1-1.2,0.6c-0.7,1.4-1.1,2.6-1.6,3.8c-0.4,1.2-1,2.3-2,3.4
									c0.6,0.4,1,1.8,1.6,1.6c1.7,0.6,3.6,0.2,5.1-2.6c0.4-0.8,2.3,0.9,1.2,2.3c1.9-0.5,2.7-2.1,4-2.9c3.4-2.8,2.4,3,4.3,4.6
									c0.4,0.5,0.8,0.8,1.2,0.9c1.9-3.5,3.4-7.5,5.2-10.9c0.4-0.8,1.6-0.1,2.1-0.9c0.9-1,1.9-2.5,2.6-4
									C92.5,27.8,92.9,26.4,92.5,25.6z"/>
								<path class="st11" d="M56.5,34.9c0.5-0.9,1-1.7,1.7-2.3c-1.3-0.3-2.5-0.7-3.7-1.1c-0.2,0.6-0.3,1.2-0.5,1.7
									c0.4,0,0.9,0.1,1.3,0.4C55.7,33.9,56.1,34.3,56.5,34.9z"/>
								<path class="st11" d="M79.1,47.9c-0.4-2.3-1.4-1.9-2.7-3.2c-1.3,2.4-2.7,2.7-4.3,1.2c0.1,0.6-0.8,0.6-1,1
									c-0.1-0.6-1-1.2-0.5-1.9c-0.4,0.8-1.4,0.2-1.5,1.2c-1.1-0.2,0.3-2-0.6-2.5c-1.2,2.5-2.8,2.9-4,2.3c-1.2-0.6-2.1-2.3-1.9-4.1
									c0.1-1.6,0.8-2.7,0.7-4.8c0-2.1,1.9-1.9,3.2-2.1c-0.7-1-2.5-0.6-1.9-2.4c0.7-1.2,1.4-2.7,1.6-4.2c-1.2,0.8-2.3,2-3.4,3
									c-1.1,1-2.1,1.7-2.8,1.6c-0.6-0.1-1.2-0.3-1.7-0.4c-0.6,0.6-1.2,1.4-1.7,2.3c-0.4-0.6-0.8-1-1.3-1.2
									c-0.4-0.3-0.9-0.4-1.3-0.4c-0.2,0.7-0.3,1.4-0.3,2.1c-0.1,1.2,0.5,1.5,1.3,1.7c0.8,0.2,1.8,0.2,2.4,0.9
									c-1.4,1.3-2,3-2.1,4.6c-0.1,1.7,0.4,3.4,1.3,4.6c1.2,1.5,2.3,2.4,4.1,3.1c0.8,0.1,1.9-0.3,2.6-1.4c-0.2,0.4-0.9,1.5-0.7,1.7
									c0.5,0.1,0.9,0.2,1.4,0.4c0.4,0.2,0.8,0.4,1.3,0.5c0.8,0.3,1.7,0.3,2.7-0.7c0.1,0.6,0.4,0.8-0.1,1.6c0.9-1.6,1.1,1.8,2,0.2
									c1,1.2,1.7,4.3,3.2,3.1c0.4-0.4,0.8-0.6,1.1-0.7c0.9-1.6,1.9-3.1,3.3-4.2c1-0.8,1.9-1.8,2.7-3
									C79.7,48.1,79.3,48.3,79.1,47.9z"/>
								<path class="st12" d="M80.7,44.1c-1.9-1.6-0.9-7.4-4.3-4.6c-1.2,0.9-2.1,2.5-4,2.9c1.2-1.4-0.7-3.1-1.2-2.3
									c-1.5,2.8-3.4,3.2-5.1,2.6c-0.5,0.2-1-1.2-1.6-1.6c1.1-1.1,1.6-2.3,2-3.4c0.4-1.2,0.8-2.4,1.6-3.8c0.1-0.5,0.6-0.5,1.2-0.6
									c0.6-0.1,1.3-0.2,1.6-0.8c1.2-2.3,0.9-4.9-0.2-6.5c-1.4,0.7-2.8,1.4-4.2,2.1c-0.1,0.1-0.2,0.2-0.4,0.3c-0.3,1.5-1,3-1.6,4.2
									c-0.6,1.7,1.2,1.4,1.9,2.4c-1.3,0.2-3.2,0-3.2,2.1c0,2.1-0.7,3.3-0.7,4.8c-0.2,1.7,0.7,3.5,1.9,4.1c1.2,0.6,2.9,0.2,4-2.3
									c0.9,0.6-0.5,2.4,0.6,2.5c0.1-1,1.1-0.4,1.5-1.2c-0.4,0.8,0.5,1.4,0.5,1.9c0.2-0.4,1.1-0.4,1-1c1.6,1.5,3,1.2,4.3-1.2
									c1.3,1.3,2.4,0.8,2.7,3.2c0.2,0.4,0.6,0.2,1.1-0.1c0.6-0.9,1.2-1.8,1.8-2.8C81.5,44.9,81.1,44.6,80.7,44.1z"/>
								<path class="st13" d="M73.1,55.7c-1.6,1.2-2.2-1.9-3.2-3.1c-0.9,1.6-1.1-1.7-2-0.2c0.5-0.8,0.2-1,0.1-1.6
									c-1,1-1.9,1-2.7,0.7c-0.4-0.1-0.8-0.4-1.3-0.5c-0.4-0.2-0.9-0.4-1.4-0.4c-0.3-0.2,0.4-1.4,0.7-1.7c-0.7,1.2-1.8,1.5-2.6,1.4
									c-1.7-0.7-2.9-1.6-4.1-3.1c-0.9-1.3-1.4-3-1.3-4.6c0.1-1.7,0.7-3.3,2.1-4.6c-0.6-0.7-1.6-0.8-2.4-0.9
									c-0.8-0.2-1.5-0.5-1.3-1.7c0-0.7,0.1-1.4,0.3-2.1c-1.1,0-2.1,0.5-3.2,1.2c-1.1,0.7-2.1,1.6-3.1,2.2c0.1,0.8,0.2,1.5,0.6,1.7
									c0.7,0.5,1.2,1.1,1.6,1.8c0.4,0.7,0.7,1.5,0.9,2.3c0.3,0.8,0.5,1.7,0.9,2.4c0.3,0.8,0.8,1.5,1.5,2.1
									c0.6,0.5,1.9,0.5,2.2,0.7c0.7,0.9,0.9,2,1.1,3.2c0.2,1.2,0.4,2.3,1.2,3.2c0,0.6,1.6-1,1.9-0.2c0.9,1.2,1.1,3.6,2.5,3.5
									c2-0.1,3.4,0.6,4.7,1.6c0.6,0.5,1.2,1,1.8,1.6c0.6,0.6,1.1,1.2,1.7,1.8c1.4-2.4,2.5-5.1,3.8-7.5
									C73.9,55.1,73.5,55.3,73.1,55.7z"/>
								<path class="st14" d="M34.3,28.7c-0.2,0.1-0.4,0.2-0.6,0.2c-0.2,0-0.4,0-0.6,0c0.2,0.3,0.4,0.6,0.5,0.9
									c0.2,0.3,0.3,0.6,0.5,1c0.3,0.6,0.6,1.4,0.8,2.1c0.1,0.4,0.3,0.8,0.4,1.2c0.1,0.4,0.2,0.8,0.3,1.2c0.2,0.8,0.4,1.7,0.6,2.6
									c0.1,0.3,0.3,0.5,0.7,0.6c0.2,0.1,0.4,0.1,0.7,0.1c0.2,0,0.5,0.1,0.8,0.1c1.1,0.2,2.2,0.5,2.6,2c0,0.6-0.2,1.1-0.5,1.5
									c-0.2,0.2-0.3,0.4-0.6,0.6c-0.2,0.2-0.4,0.3-0.7,0.4c0.2,0.2,0.5,0.4,0.7,0.7c0.2,0.2,0.4,0.5,0.6,0.7
									c0.4,0.5,0.8,1,1.1,1.6c0.7,1.1,1.3,2.2,1.8,3.4c1.1,2.3,2.2,4.6,4.1,5.9c1.9,1.3,3.8,3,5.5,5.1c0.8,1,1.6,2.1,2.2,3.3
									c0.6,1.2,1.1,2.4,1.5,3.7c0.3,1.1,1.1,1.7,2.1,2.2c0.5,0.2,1.1,0.4,1.7,0.5c0.3,0.1,0.6,0.2,0.9,0.2
									c0.3,0.1,0.6,0.2,0.9,0.3c0.3-0.5,0.7-0.9,1-1.4c0.3-0.5,0.6-0.9,1-1.4c-1.4-0.8-2.6-1.7-3.2-3.1c-0.9-2.3-1.9-4.2-3.2-5.6
									c-1.3-1.4-2.9-2.4-5-3c-0.7-0.3-1-1.6-1.3-2.9c-0.2-1.3-0.4-2.6-0.8-3c-0.8-0.9-1.5-1.8-2.2-2.8c-0.3-0.5-0.6-0.9-0.9-1.4
									c-0.3-0.5-0.6-1-0.9-1.5c-0.6-1-1.1-2-1.6-3c-0.5-1-1-2.1-1.5-3.2c-0.1-0.3-0.2-0.6-0.4-0.9c-0.1-0.3-0.3-0.6-0.5-0.9
									c-0.3-0.6-0.7-1.3-1.2-2c-0.3,0-0.6,0-0.9,0.1l-0.5,0c-0.2,0-0.3,0-0.4,0c-0.1,0-0.3,0-0.4,0c-0.1,0-0.3,0-0.4-0.1
									c-0.1,0-0.3-0.1-0.4-0.1c-0.1-0.1-0.3-0.1-0.4-0.2c-0.8,0.2-1.4-0.2-1.8-0.7c-0.1-0.1-0.2-0.3-0.3-0.5
									c-0.1-0.2-0.1-0.3-0.2-0.5c-0.1-0.4-0.2-0.8-0.3-1.1c-0.2-0.8-0.3-1.5-0.5-2.1c-0.1-0.3-0.2-0.5-0.4-0.6
									C34.7,28.7,34.5,28.6,34.3,28.7z"/>
								<path class="st15" d="M62.1,57.5c-1.4,0.1-1.6-2.3-2.5-3.5c-0.3-0.8-1.9,0.8-1.9,0.2c-0.8-0.9-1-2-1.2-3.2
									c-0.2-1.2-0.4-2.3-1.1-3.2c-0.3-0.2-1.6-0.2-2.2-0.7c-0.7-0.6-1.1-1.4-1.5-2.1c-0.3-0.8-0.6-1.6-0.9-2.4
									c-0.3-0.8-0.5-1.6-0.9-2.3c-0.4-0.7-0.9-1.3-1.6-1.8c-0.4-0.2-0.5-0.8-0.6-1.7c0,0,0,0,0,0c0-0.9-0.3-1.2-0.6-1.3
									c-0.3-0.1-0.7,0-0.9,0.1c-1.6,0.4-2.3-0.2-3.6-0.8c-0.1,0-0.2,0-0.4,0c-0.1,0-0.2,0-0.3,0c0.4,0.7,0.8,1.3,1.2,2
									c0.2,0.3,0.3,0.6,0.5,0.9c0.1,0.3,0.3,0.6,0.4,0.9c0.5,1.1,1,2.2,1.5,3.2c0.5,1,1,2,1.6,3c0.3,0.5,0.6,1,0.9,1.5
									c0.3,0.5,0.6,0.9,0.9,1.4c0.7,0.9,1.4,1.9,2.2,2.8c0.4,0.4,0.6,1.7,0.8,3c0.2,1.3,0.5,2.6,1.3,2.9c2.1,0.7,3.7,1.6,5,3
									c1.3,1.4,2.3,3.3,3.2,5.6c0.6,1.4,1.8,2.3,3.2,3.1c0.3-0.4,0.5-0.7,0.8-1.1c0.3-0.4,0.5-0.7,0.8-1c0.3-0.4,0.7-0.4,1.1-0.3
									c0.4,0.1,0.7,0.3,0.7,0.3c1-0.9,1.9-2,2.6-3.3c-0.6-0.6-1.2-1.2-1.7-1.8c-0.6-0.6-1.2-1.1-1.8-1.6
									C65.6,58.1,64.1,57.4,62.1,57.5z"/>
								<path class="st16" d="M31.9,28.3c-0.1,0.1-0.3,0.2-0.4,0.2c-0.1,0.1-0.3,0.1-0.4,0.1c-0.3,0.1-0.4-0.2-0.5-0.4
									c0-0.3,0-0.6-0.1-0.7l0,0.4c0-0.1-0.1-0.1-0.2-0.2c0,1.4-0.1,2.8-0.4,4.2c0.4,0.2,0.7,0.6,0.7,1.3c0,0.3,0,0.6,0.1,1
									c0,0.3,0,0.6,0.1,1c0,0.6,0.1,1.3,0.1,1.9c0.1,0.7,0.1,1.3,0.2,1.9c0.1,0.6,0.2,1.3,0.3,1.9c0.1,0.6,0.3,1.2,0.5,1.8
									c0.2,0.6,0.5,1.1,0.8,1.7c0.2,0.3,0.3,0.5,0.5,0.8c0.2,0.3,0.4,0.5,0.6,0.7c0.4,0.5,0.9,0.9,1.5,1.3
									c0.2,0.1,0.4,0.3,0.5,0.6c0.1,0.3,0.2,0.6,0.2,0.9c0.1,0.7,0.1,1.5,0.1,2.4c0,0.9,0,1.8,0.2,2.7c0.1,0.4,0.3,0.8,0.5,1.2
									c0.2,0.4,0.5,0.7,0.9,1c0.3,0.2,0.6,0.3,0.9,0.4c0.3,0.1,0.7,0.2,1,0.4c0.3,0.1,0.7,0.3,0.9,0.6c0.3,0.2,0.5,0.6,0.6,1
									c0.2,1.2-0.1,2.5-0.1,3.7c0,1.2,0.1,2.2,1.3,2.9c1.5,0.6,2.9,1.3,4.2,2.1c1.3,0.8,2.6,1.6,3.7,2.6c2.3,1.9,4.1,4.1,4.9,6.9
									c1.2-0.1,2.5-0.8,3.7-1.9c1.2-1.1,2.3-2.6,3.4-4.2c-0.3-0.1-0.6-0.2-0.9-0.3c-0.3-0.1-0.6-0.2-0.9-0.2
									c-0.6-0.2-1.2-0.3-1.7-0.5c-1.1-0.4-1.9-1.1-2.1-2.2c-0.3-1.3-0.8-2.5-1.5-3.7c-0.6-1.2-1.4-2.2-2.2-3.3
									c-1.6-2-3.6-3.8-5.5-5.1c-1.9-1.3-3-3.6-4.1-5.9c-0.6-1.2-1.1-2.3-1.8-3.4c-0.3-0.5-0.7-1.1-1.1-1.6
									c-0.2-0.2-0.4-0.5-0.6-0.7c-0.2-0.2-0.5-0.5-0.7-0.7c0.2-0.1,0.5-0.3,0.7-0.4c0.2-0.2,0.4-0.4,0.6-0.6
									c0.3-0.4,0.5-0.9,0.5-1.5c-0.4-1.5-1.5-1.8-2.6-2c-0.3,0-0.5-0.1-0.8-0.1c-0.2,0-0.5-0.1-0.7-0.1c-0.4-0.1-0.7-0.3-0.7-0.6
									c-0.2-0.9-0.4-1.8-0.6-2.6c-0.1-0.4-0.2-0.8-0.3-1.2c-0.1-0.4-0.2-0.8-0.4-1.2c-0.3-0.7-0.5-1.5-0.8-2.1
									c-0.2-0.3-0.3-0.7-0.5-1c-0.2-0.3-0.3-0.6-0.5-0.9C32.7,28.9,32.3,28.6,31.9,28.3z"/>
								<path class="st8" d="M42.5,65.1c-1.2-0.6-1.4-1.7-1.3-2.9c0.1-1.2,0.3-2.5,0.1-3.7c-0.1-0.5-0.3-0.8-0.6-1
									c-0.3-0.2-0.6-0.4-0.9-0.6c-0.3-0.1-0.7-0.3-1-0.4c-0.3-0.1-0.7-0.3-0.9-0.4c-0.4-0.3-0.7-0.6-0.9-1
									c-0.2-0.4-0.4-0.8-0.5-1.2c-0.2-0.9-0.2-1.8-0.2-2.7c0-0.9,0-1.8-0.1-2.4c0-0.3-0.1-0.7-0.2-0.9c-0.1-0.3-0.3-0.5-0.5-0.6
									c-0.6-0.4-1-0.8-1.5-1.3c-0.2-0.2-0.4-0.5-0.6-0.7c-0.2-0.3-0.3-0.5-0.5-0.8c-0.3-0.5-0.6-1.1-0.8-1.7
									c-0.2-0.6-0.4-1.2-0.5-1.8c-0.1-0.6-0.2-1.3-0.3-1.9c-0.1-0.6-0.2-1.3-0.2-1.9c-0.1-0.6-0.1-1.3-0.1-1.9c0-0.3,0-0.6-0.1-1
									c0-0.3,0-0.6-0.1-1c0-0.7-0.3-1.1-0.7-1.3c-0.1,0.6-0.3,1.2-0.5,1.7c-0.2,0.5,0,1.3,0.2,2.1c0.1,0.4,0.3,0.8,0.4,1.2
									c0.1,0.2,0.2,0.4,0.2,0.6c0.1,0.2,0.1,0.4,0.2,0.6c0,1.2-0.2,2.1-0.6,2.9c-0.1,0.2-0.2,0.4-0.3,0.6
									c-0.1,0.2-0.2,0.3-0.4,0.5c-0.3,0.3-0.6,0.6-0.9,0.9c-0.2,0.3-0.4,0.5-0.6,0.8c0-0.1,0-0.1,0-0.2c-0.2,0.2-0.3,0.3-0.5,0.5
									c0.2,0.6,0.4,1.3,0.6,1.9c0.1,0,0.2,0.1,0.3,0.3c-0.1,0-0.1,0.1-0.2,0.1c0.3,0.9,0.5,1.9,0.6,3c0.1,1,0.3,1.8,0.6,2.6
									c0.2,0,0.4,0,0.6,0.1c-0.2,0-0.3,0-0.4,0.1c0.3,0.6,0.7,1.3,1.1,1.8c0.2,0.3,0.4,0.6,0.7,0.8c0.2,0.3,0.5,0.5,0.7,0.8
									c0.1,0.1,0.2,0.3,0.3,0.4c0.1,0.1,0.2,0.3,0.3,0.4c0.2,0.3,0.4,0.6,0.7,0.9c0.4,0.6,0.8,1.2,1.1,2c0.2,0.7,0.7,1.4,1.4,2.1
									c0.6,0.7,1.4,1.4,2,2.1c0.7,0.7,1.3,1.5,1.8,2.3c0.4,0.9,0.7,1.8,0.5,3c0.4-0.3,0.8-0.1,1.3,0.1c0.5,0.2,0.9,0.3,1.3,0
									c-0.1,0.9-0.1,1.8,0.1,2.7c0.8,0.7,1.9,1.3,2.1,2.1c-0.1,0.9-0.8,0.5-1.4,0.4c0.1,0.2,0.2,0.4,0.2,0.6
									c0.1,0.1,0.2,0.1,0.2,0.2c0.4-0.1,0.8-0.4,1.1-0.7c0.3-0.7,0.7-1.4,1-2.1c-0.1,0.8-0.5,1.6-1,2.1c-0.2,0.4-0.3,0.8-0.5,1.1
									c0.5,0.3,0.9,0.6,1.4,0.9c0.5,0.3,1,0.5,1.5,0.7c0.2-0.1,0.4-0.3,0.6-0.4c-0.1,0.1-0.3,0.3-0.5,0.5c0.1,0.1,0.3,0.1,0.4,0.1
									c0.7-0.7,2.2-2,3.5-3.4c1.3,2,2.6,2.7,3.9,2.7c-0.9-2.8-2.6-5.1-4.9-6.9c-1.1-0.9-2.4-1.8-3.7-2.6
									C45.4,66.4,44,65.7,42.5,65.1z"/>
							</g>
						</g>
					</g>
					<g>
						<g class="st6">
							<g class="st6">
								<path class="st7" d="M70.7,26.7c0.2,0,0.3,0,0.5,0c-0.2-0.6-0.4-1.3-0.5-2.1c0.2-1.2-1.4-0.5-3.1,0.2
									C67.9,26,68.7,26.8,70.7,26.7z"/>
								<path class="st8" d="M81.3,36.4c0.1-0.4,0.2-0.8,0.3-1.1c0,0-0.1-0.1-0.1-0.1C81.5,35.6,81.4,36,81.3,36.4z"/>
								<path class="st7" d="M76.5,27.6c-1.1,0.3-1.6,1.3-2.3,1.9c0.6,0.3,1.2,0.8,1.7,1.5c0.6,0.7,1.2,1.2,1.9,1.7
									c0.2-0.4,0.6-1,1.1-1.2c-0.3-0.2-0.3-0.2-0.5,0.3c0.2-0.4,0.7-1.3,0.7-1.3c-0.4-0.7-1.8-0.4-2.6,0.3
									c0.4-0.7,0.9-1.7,1.3-2.5c-0.2-0.2-0.5-0.4-0.8-0.5c-0.2,0-0.5,0.1-0.7,0.2L76.5,27.6z"/>
								<path class="st7" d="M61.3,18.3c0.1,0.1,0.2,0.1,0.3,0.2c0.2-0.6,0.4-1.1,0.7-1.6c-0.4-0.2-0.8-0.4-1.1-0.6
									c-0.1,0.3-0.3,0.6-0.4,0.9c-0.1-0.1-0.1-0.3-0.2-0.4c0-0.2,0-0.5,0.1-0.7c0,0,0,0,0,0c-0.2-0.1-0.4-0.2-0.7-0.3
									c0.1,0.2,0.2,0.3,0.3,0.5c-0.3,0.1-0.5,0.1-0.7,0.2c-0.2,0.1-0.3,0.3-0.3,0.7C59.5,17.7,60.4,17.9,61.3,18.3z"/>
								<path class="st9" d="M52.7,20.7c0.3,0.8,0.5,1.6,0.6,2.5c0.5-0.8,1.7,0,2.1-0.8c0.2,1.2,0.6,2,1.1,2.6
									c0.6,0.6,1.3,1,2.1,1.4c1.5,0.7,3.2,1,4,2c1,1,2.2,1.4,3.3,1.7c1.2,0.3,2.4,0.5,3.4,1c0.2-0.6-0.1-1.2,0.5-1.7
									c-0.5-0.3-1-0.2-1.4,0.4c-0.1,0.1-0.2,0.2-0.2,0.3c0.1-0.1,0.1-0.2,0.2-0.3c0.3-0.4,0.6-0.7,1-1c-0.2,0-0.3-0.1-0.3-0.3
									c0-0.2,0.1-0.3,0.2-0.5c-0.5-0.3-1-0.5-1.4-0.8c-0.5-0.3-0.9-0.7-1.3-1.1c-0.8-0.8-1.5-1.8-2-3.3c-0.2,0-0.3,0-0.5,0
									c-1.9,0.1-2.7-0.7-3.1-2.1c-1,0.4-2.2,0.7-3,0.6c-0.7-0.2-1.5-0.6-2.2-0.9c-0.7-0.4-1.4-0.8-2.2-1.2c-0.3,0.5-0.5,1-0.7,1.6
									C52.9,20.8,52.8,20.7,52.7,20.7z"/>
								<path class="st10" d="M3.7,63.5c0.6,2.3,2,4.5,3.8,6c0.9,0.7,1.9,1.3,2.9,1.6c1,0.3,2.1,0.3,3.1,0c0.5-0.1,1.1-0.2,1.6-0.3
									c0.5-0.1,1.1-0.2,1.6-0.3c1.1-0.2,2.1-0.4,3.2-0.6c1.1-0.2,2.2-0.5,3.3-0.7c0.5-0.1,1.1-0.3,1.7-0.4
									c0.6-0.1,1.1-0.3,1.7-0.5c-1-1.8-1-4.4,0.6-6.5c0.4-0.5,1.1-0.6,1.8-0.5c0.6,0,1.2,0,1.3-0.5c0.9-1.3,1.5-2.5,2-3.6
									c0.3-0.6,0.6-1.1,1-1.7c0.4-0.5,0.9-1.1,1.5-1.6c-0.6-0.4-1-1.9-1.5-1.7c-0.9-0.4-1.8-0.5-2.7-0.3c-0.9,0.3-1.9,1-2.8,2.2
									c-0.5,0.7-2.3-1.3-1-2.5c-2,0.1-3,1.6-4.4,2.2c-1.9,1-2.5,0.1-2.7-1.3c-0.3-1.4-0.3-3.3-1.1-4.3c-0.3-0.6-0.7-1-1.1-1.2
									c-0.3,0.4-0.6,0.8-0.9,1.1c-0.3,0.4-0.6,0.8-0.8,1.2c-0.6,0.8-1.1,1.6-1.7,2.4c-0.6,0.8-1.1,1.6-1.7,2.4
									c-0.6,0.8-1.1,1.5-1.7,2.3c-0.6,0.7-1.7-0.3-2.2,0.3c-0.6,0.4-1.2,0.9-1.7,1.4c-0.6,0.5-1.1,1.2-1.6,1.8
									C4,61.3,3.4,62.6,3.7,63.5z"/>
								<path class="st11" d="M43.3,60.2c-0.6,1-1.3,1.8-2,2.5c1.5,0.3,2.9,0.6,4.3,0.8c0.2-0.6,0.5-1.2,0.7-1.9
									C45.2,61.8,44.2,61.4,43.3,60.2z"/>
								<path class="st11" d="M20.5,44.9c0.1,2.4,1.2,2.2,2.4,3.7c0.8-1.1,1.5-1.6,2.3-1.7c0.4,0,0.7,0.1,1.1,0.3
									c0.4,0.2,0.7,0.5,1.1,1c0-0.6,0.8-0.5,1.1-0.9c0,0.6,0.9,1.3,0.4,2c0.5-0.7,1.4,0,1.6-1c1.1,0.3-0.5,1.9,0.4,2.6
									c0.4-0.6,0.7-1,1.1-1.4c0.4-0.3,0.8-0.6,1.1-0.7c0.7-0.3,1.5-0.2,2.1,0.2c1.3,0.7,2.1,2.5,1.8,4.2c-0.2,1.6-1,2.7-1.1,4.8
									c-0.1,1.1-0.6,1.5-1.3,1.7c-0.2,0-0.4,0.1-0.6,0.1c-0.2,0-0.4,0-0.6,0c-0.4,0-0.8,0-1.2,0c0.6,1.1,2.6,0.9,1.9,2.6
									c-0.9,1.2-1.8,2.6-2.2,4.1c0.7-0.4,1.4-0.8,2.1-1.3c0.3-0.2,0.7-0.5,1-0.7c0.3-0.2,0.7-0.5,1-0.7c1.3-0.9,2.5-1.6,3.3-1.6
									c0.7,0.1,1.3,0.3,2,0.4c0.8-0.7,1.5-1.5,2-2.5c0.9,1.1,1.9,1.5,2.9,1.5c0.2-0.7,0.4-1.5,0.4-2.2c0.4-2.6-3-0.9-4.3-2.4
									c1.6-1.4,2.4-3.2,2.4-4.8c0.1-1.7-0.5-3.3-1.5-4.6c-0.6-0.7-1.2-1.3-1.9-1.8c-0.7-0.5-1.4-0.9-2.3-1.2
									c-0.9-0.1-2,0.3-2.7,1.4c0.3-0.4,1-1.5,0.7-1.7c-0.5-0.1-1-0.3-1.4-0.5c-0.4-0.2-0.8-0.5-1.3-0.6c-0.8-0.3-1.7-0.4-2.7,0.5
									c0-0.6-0.3-0.8,0.2-1.6c-1,1.5-1-1.9-2-0.4c-0.9-1.3-1.4-4.5-3-3.5c-0.4,0.4-0.8,0.5-1.1,0.5c-0.2,0.4-0.5,0.7-0.8,1
									c-0.3,0.3-0.5,0.7-0.8,1c-0.6,0.6-1.3,1.1-2,1.6c-1.1,0.6-2,1.5-3,2.4C19.8,44.6,20.3,44.4,20.5,44.9z"/>
								<path class="st12" d="M18.4,48.3c0.9,1,0.9,2.9,1.1,4.3c0.3,1.4,0.8,2.2,2.7,1.3c1.4-0.6,2.4-2,4.4-2.2
									c-1.4,1.2,0.4,3.2,1,2.5c0.9-1.3,1.9-2,2.8-2.2c0.9-0.3,1.9-0.1,2.7,0.3c0.6-0.1,0.9,1.3,1.5,1.7c-0.6,0.5-1.1,1.1-1.5,1.6
									c-0.4,0.5-0.7,1.1-1,1.7c-0.6,1.1-1.1,2.3-2,3.6c-0.1,0.5-0.7,0.5-1.3,0.5c-0.6,0-1.4,0-1.8,0.5c-1.6,2.1-1.6,4.7-0.6,6.5
									c0.8-0.2,1.6-0.5,2.4-0.7c0.4-0.1,0.8-0.2,1.2-0.4c0.4-0.1,0.8-0.3,1.2-0.4c0.1-0.1,0.3-0.1,0.4-0.2
									c0.5-1.4,1.4-2.9,2.2-4.1c0.8-1.7-1.2-1.5-1.9-2.6c0.4,0,0.8,0,1.2,0c0.2,0,0.4,0,0.6,0c0.2,0,0.4-0.1,0.6-0.1
									c0.7-0.2,1.3-0.6,1.3-1.7c0.2-2.2,0.9-3.3,1.1-4.8c0.3-1.7-0.5-3.5-1.8-4.2c-0.6-0.4-1.4-0.5-2.1-0.2
									c-0.4,0.1-0.8,0.4-1.1,0.7c-0.4,0.3-0.7,0.8-1.1,1.4c-0.9-0.7,0.7-2.3-0.4-2.6c-0.2,1-1.1,0.3-1.6,1c0.5-0.7-0.4-1.4-0.4-2
									c-0.3,0.4-1.1,0.3-1.1,0.9c-0.4-0.4-0.7-0.8-1.1-1c-0.4-0.2-0.7-0.3-1.1-0.3c-0.7,0-1.5,0.6-2.3,1.7
									c-1.2-1.5-2.3-1.3-2.4-3.7c-0.2-0.4-0.6-0.3-1.1-0.1c-0.7,0.7-1.4,1.5-2.1,2.4C17.7,47.3,18,47.7,18.4,48.3z"/>
								<path class="st13" d="M27,38.3c1.6-1,2.1,2.2,3,3.5c1-1.5,1,1.9,2,0.4c-0.5,0.7-0.2,1-0.2,1.6c1.1-0.9,1.9-0.8,2.7-0.5
									c0.4,0.2,0.8,0.4,1.3,0.6c0.4,0.2,0.9,0.4,1.4,0.5c0.3,0.2-0.5,1.3-0.7,1.7c0.8-1.1,1.9-1.4,2.7-1.4
									c0.9,0.4,1.6,0.8,2.3,1.2c0.7,0.5,1.3,1,1.9,1.8c1,1.2,1.5,2.9,1.5,4.6c-0.1,1.7-0.8,3.5-2.4,4.8c1.3,1.5,4.6-0.2,4.3,2.4
									c0,0.7-0.2,1.4-0.4,2.2c1.3-0.1,2.6-0.8,3.9-1.8c1.3-1,2.6-2.2,3.7-3.1c-0.1-0.8-0.4-1.4-0.8-1.5c-1.8-0.6-2.5-2.1-3.2-3.6
									c-0.6-1.5-1.2-3.2-2.8-4.2c-0.6-0.4-2-0.3-2.3-0.5c-1.6-1.6-1-4.6-2.5-6.2c-0.1-0.6-1.6,1.1-1.9,0.3
									c-0.9-1.2-1.1-3.6-2.5-3.5c-1,0-1.8-0.2-2.5-0.5c-0.7-0.3-1.4-0.8-2-1.3C32,34.7,31,33.3,29.9,32c-0.4,0.5-0.7,1.1-1,1.7
									c-0.3,0.6-0.7,1.2-1,1.7c-0.6,1.2-1.3,2.3-2,3.4C26.2,38.8,26.6,38.6,27,38.3z"/>
								<path class="st14" d="M74.3,55.6c0.7-0.7,1.4-1.3,2-1.7c-1.8,0.1-3.3-0.4-4.6-1.1c-0.6-0.4-1.3-0.9-1.8-1.4
									c-0.6-0.5-1.1-1.2-1.7-1.8c-0.4-0.5-1.7,0.3-3.1,0.9c-0.4,0.1-0.7,0.3-1.1,0.4c-0.4,0.1-0.7,0.1-1,0.1
									c-0.6,0-1.2-0.2-1.6-0.9c-0.1-1.2,0.6-2.4,1.6-3.4c-2.7-0.5-4.4-2.2-6-4c-0.4-0.5-0.8-0.9-1.2-1.3c-0.4-0.4-0.8-0.9-1.2-1.3
									c-0.8-0.8-1.7-1.5-2.7-1.9c-1-0.4-2.1-0.9-3-1.6c-1-0.7-1.9-1.5-2.8-2.4c-1.7-1.8-3.1-4-3.9-6.5c-0.6-2.2-3.1-2.3-5.2-3.1
									c-0.3,0.5-0.5,0.9-0.8,1.4c-0.3,0.4-0.6,0.9-0.8,1.3c0.6,0.4,1.3,0.9,1.8,1.4c0.5,0.5,1,1.1,1.2,1.7
									c0.9,2.3,1.9,4.1,3.2,5.5c1.3,1.3,2.9,2.2,5.1,2.6c1.5,0.4,1.6,5,2.5,5.6c0.9,0.8,1.8,1.5,2.6,2.3c0.8,0.8,1.5,1.6,2.2,2.4
									c1.4,1.6,2.8,3.3,4.3,5c0.3,0.5,0.8,0.9,1.3,1.4c0.5,0.5,1.1,0.9,1.8,1.3c0.8-0.4,1.6-0.8,2.5-1.2c0.4-0.2,0.8-0.4,1.3-0.5
									c0.4-0.2,0.9-0.3,1.3-0.4c2.3-1.6,3.5-0.6,4.6,0.4C72.1,55.7,72.9,56.9,74.3,55.6z"/>
								<path class="st15" d="M37.8,37.6c1.4-0.1,1.6,2.3,2.5,3.5c0.3,0.8,1.9-0.9,1.9-0.3c1.6,1.6,1,4.6,2.5,6.2
									c0.3,0.2,1.7,0.1,2.3,0.5c1.5,1,2.1,2.7,2.8,4.2c0.7,1.5,1.4,3,3.2,3.6c0.5,0.1,0.7,0.7,0.8,1.5c0,0,0,0,0,0
									c0,1.8,1.6,1,2,0.8c2-1,2.9-0.7,4.7-0.7c0.3-0.1,0.6-0.2,0.9-0.4c-0.7-0.4-1.3-0.9-1.8-1.3c-0.5-0.5-1-0.9-1.3-1.4
									c-1.5-1.8-2.9-3.4-4.3-5c-0.7-0.8-1.5-1.6-2.2-2.4c-0.8-0.8-1.6-1.5-2.6-2.3c-0.9-0.6-1.1-5.1-2.5-5.6
									c-2.1-0.3-3.8-1.2-5.1-2.6c-1.3-1.3-2.3-3.2-3.2-5.5c-0.3-0.7-0.7-1.2-1.2-1.7c-0.5-0.5-1.1-1-1.8-1.4c-0.5,0.7-1,1.4-1.4,2
									c-0.5,0.7-1.6-0.1-1.6-0.1c-1,0.8-1.8,1.8-2.5,2.9c1.1,1.3,2.1,2.7,3.3,3.7c0.6,0.5,1.3,1,2,1.3
									C36,37.4,36.8,37.6,37.8,37.6z"/>
								<path class="st16" d="M78.7,52.6c0.3-0.5,0.7-1,1.1-1.3c1-1.1,1.2,0.1,1.8-0.2l-0.3-0.2c0.1,0,0.3-0.1,0.4-0.2
									c-0.9-0.8-1.7-1.9-2.1-3.3c-0.7,0.4-1.4,0.6-1.8,0.1c-1.6-1.6-3-3.6-4.7-5c-1.7-1.5-3.8-2.4-6.6-2.2c-1.1,0.2-1.5-1.4-2-3.1
									c-0.5-1.7-1.2-3.4-2.9-3.6c-0.6-0.1-1.3,0.1-2,0.2c-0.7,0-1.4-0.1-1.7-0.9c-0.8-2.2-0.1-5.5-2.4-5.9
									c-0.7-0.1-1.4-0.1-2.1-0.3c-0.7-0.1-1.3-0.3-2-0.5c-1.3-0.4-2.5-1-3.6-1.7c-0.6-0.4-1.1-0.8-1.6-1.2
									c-0.5-0.4-0.9-0.9-1.4-1.4c-0.8-1-1.5-2.2-2-3.6c-1,0.1-2,0.9-2.9,2.1c-0.9,1.1-1.8,2.6-2.7,4.1c2.1,0.8,4.6,0.9,5.2,3.1
									c0.8,2.5,2.2,4.7,3.9,6.5c0.9,0.9,1.8,1.7,2.8,2.4c1,0.7,2,1.2,3,1.6c1,0.4,1.9,1.1,2.7,1.9c0.4,0.4,0.8,0.8,1.2,1.3
									c0.4,0.4,0.8,0.9,1.2,1.3c1.6,1.8,3.3,3.5,6,4c-1,1-1.8,2.2-1.6,3.4c0.4,0.6,0.9,0.9,1.6,0.9c0.3,0,0.7-0.1,1-0.1
									c0.4-0.1,0.7-0.2,1.1-0.4c1.4-0.6,2.7-1.3,3.1-0.9c0.5,0.7,1.1,1.3,1.7,1.8c0.6,0.5,1.2,1,1.8,1.4c1.3,0.8,2.8,1.2,4.6,1.1
									C77.2,53.3,77.9,52.9,78.7,52.6z"/>
								<path class="st8" d="M55.3,27.1c2.3,0.4,1.6,3.7,2.4,5.9c0.4,0.8,1,0.9,1.7,0.9c0.7-0.1,1.5-0.3,2-0.2
									c1.7,0.2,2.4,2,2.9,3.6c0.5,1.7,0.9,3.2,2,3.1c2.9-0.3,4.9,0.7,6.6,2.2c1.7,1.4,3.1,3.4,4.7,5c0.5,0.5,1.1,0.3,1.8-0.1
									c-0.2-0.6-0.3-1.2-0.3-1.9c-0.2-1.2-2.6-1.3-3.9-2c-1.2-1.7-0.5-4,0.1-6.1c0.1-0.4,0.1-0.8,0.2-1.2c0,0,0.1,0.1,0.1,0.1
									c0.1-0.3,0.2-0.6,0.2-0.9c-0.5-0.2-1.1-0.5-1.6-0.8c-0.1,0.1-0.3,0.1-0.5,0.1c0-0.1,0.1-0.2,0.2-0.3c-0.7-0.5-1.4-1-1.9-1.7
									c-0.5-0.7-1-1.2-1.6-1.6c-0.2,0.1-0.3,0.3-0.6,0.4c0.2-0.2,0.3-0.3,0.3-0.5c-0.5-0.3-1.1-0.4-1.7-0.6
									c-0.6-0.1-1.2-0.3-1.8-0.4c-1.2-0.3-2.3-0.7-3.3-1.6c-0.2-0.3-0.5-0.5-0.8-0.7c-0.3-0.2-0.6-0.3-1-0.5
									c-0.7-0.3-1.5-0.5-2.3-0.9c-1.5-0.7-2.9-1.7-3.2-4c-0.5,0.8-1.7,0-2.1,0.8c-0.1-0.9-0.3-1.8-0.6-2.5
									c-0.8-0.4-1.7-0.7-2.1-1.4c-0.1-0.9,0.5-0.7,1-0.8c-0.1-0.2-0.2-0.4-0.3-0.5c-0.1,0-0.1-0.1-0.2-0.1
									c-0.3,0.2-0.5,0.6-0.7,0.9c-0.1,0.8-0.3,1.6-0.4,2.3c-0.1-0.8,0.1-1.6,0.4-2.3c0.1-0.4,0.1-0.8,0.1-1.2
									c-0.8-0.4-1.7-0.6-2.6-0.8c-0.1,0.2-0.2,0.3-0.4,0.5c0.1-0.2,0.2-0.3,0.3-0.5c-0.1,0-0.2,0-0.4-0.1
									c-0.5,0.8-1.4,2.3-2.3,3.9c-1.3-1.7-2.5-2.3-3.6-2.2c0.5,1.3,1.2,2.5,2,3.6c0.4,0.5,0.9,1,1.4,1.4c0.5,0.4,1,0.8,1.6,1.2
									c1.1,0.7,2.3,1.3,3.6,1.7c0.6,0.2,1.3,0.4,2,0.5C54,27,54.6,27.1,55.3,27.1z"/>
							</g>
						</g>
					</g>
				</g>
			</g>
			<g>
				<path class="st17" d="M48.5,55.3c0,0,0,0.1,0.1,0.4c0.1,0.3,0.1,0.7,0.2,1.2c0.2,1.1,0.4,2.6,0.5,4.7c0.1,2,0.1,4.5,0,7.3
					c-0.1,2.8-0.4,5.9-0.7,9.4c0,0,0-0.2,0-0.5c0-0.3-0.1-0.8-0.1-1.5c-0.1-1.3-0.1-3.1-0.1-5.3c0-2.2,0.1-4.7,0.1-7.4
					c0-1.3,0.1-2.7,0.1-4.1C48.5,58.2,48.5,56.7,48.5,55.3z"/>
			</g>
		</g>
		<path class="st18" d="M72.4-3.1c-3-0.8-6.2-0.8-9.2-1.2c1.9-1.9,4.1-3.3,6.3-4.9c0.3-0.2,1-1,0.3-1.3c-3.7-1.4-9.5,1.1-12.7,2.8
			c-1.8,1-3.3,2.3-4.7,3.8c1.6-3.4,2.7-6.9,2.4-10.6c-0.1-1.2-1.8,0-1.9,0.7c-0.5,2.5-2.4,4.4-4.4,6.1c0.4-0.9,0.8-1.8,1.1-2.7
			c1.2-4.4-0.2-11.1-4.6-13.3c-0.3-0.2-0.8,0.4-0.6,0.7c2.3,3.2-0.1,9.2-2.3,11.8C38.5-8.7,34.3-7.5,30-6.3"/>
		<g>
			<path class="st19" d="M48.4,56.6C36,68.1,26.8,54.3,26.8,54.3s-4.3-4.5,6.9-17.2c0,0,13.3-13.1,29.5-0.3C77,47.9,69.9,54,69.9,54
				s-4.6,13.1-21.7,1.7"/>
		</g>
		<path class="st20" d="M70.9,51.6c0,0-2.1,9.2-11.5,9.2s-10-5.4-10.6-6"/>
		<path class="st20" d="M26.6,51.6c0,0,2.1,9.2,11.5,9.2s10-5.4,10.6-6"/>
		<path class="st21" d="M55.3,48.4c-0.4,0.7-0.9,1.3-1.6,1.8c-0.5,0.3-1.1,0.5-1.6,0.6c-1.7,0.4-3.4,0.6-5.1,0.5c-1,0-2-0.2-2.8-0.6
			c-1-0.6-1.7-1.5-2.4-2.5c-0.6-0.9-1.2-1.7-1.8-2.6c-0.2-0.2-0.3-0.5-0.3-0.8c0.1-0.3,0.4-0.5,0.7-0.6c1.6-0.6,3.4-0.7,5.1-0.8
			c2.8-0.1,5.6-0.3,8.4,0.1c1,0.1,2.8,0.2,3.1,1.4C57.1,46,55.9,47.5,55.3,48.4z"/>
		<path class="st22" d="M52.5,50.5c0.8-0.3,1.5-0.8,1.6-1.8c0-0.4-0.3-0.9-0.8-0.9c-0.2,0-0.4,0.2-0.7,0.2c-0.6,0.1-1.1-0.4-1.3-1
			c-0.2-0.6-0.2-1.3,0-1.9c0.3-0.6,1-1,1.6-0.9c0.6,0.1,1.2,0.8,1,1.4c-0.1,0.3-0.2,0.6,0,0.8c0.1,0.1,0.2,0.1,0.3,0.1
			c0.8,0.1,1.7-0.1,2.3-0.6c1.5-1.1,1.3-3,1-4.6c-0.1-0.6-0.2-1.2-0.4-1.7c-0.6-1.3-1.9-2.2-3.2-2.8c-4.3-1.9-9.9-2.3-13.6,1.1
			c-1,1-1.8,2.4-1.8,3.8c0,1.6,0.1,3.8,1.6,4.8c0.7,0.5,1.8,0.4,2.3-0.3c0.3-0.5,0.4-1.2,0.9-1.4c0.4-0.2,0.9,0.1,1.2,0.4
			c0.4,0.3,0.7,0.8,0.8,1.3c0.1,0.5-0.2,1.1-0.7,1.2c-0.4,0.1-0.8-0.2-1.1-0.3c-0.4-0.1-0.9-0.1-1,0.3c0,0.1,0,0.3,0,0.4
			c0.3,2,4,4.5,5.2,1.9c0.1-0.3,0.2-0.6,0.2-1c0.2-1.2,0.2-2.3,0.2-3.5c0,1.6,0.2,3.1,0.5,4.6c0,0.2,0.1,0.3,0.2,0.5
			c0.1,0.1,0.2,0.1,0.3,0.2C50.2,51,51.5,50.8,52.5,50.5z"/>
		<path class="st23" d="M20.7,60.8c0.1-3.9,0.8-7.8,0.6-11.7c-0.5-7.7-3.5-15-5.5-22.5c-1.5-5.8-2.5-11.9-1.4-17.9
			c0.6-3,1.7-5.8,3.4-8.3c-3.5,2.4-6.7,5.3-8.8,8.6C8.8,9.3,9,9.4,9.2,9.3C9.1,9.5,9,9.6,9,9.8c-3.3,7.7,2.9,15.8,0,23.7
			c-1,2.7-0.8,5.5-0.9,8.2c0,0.7,0.1,1.4,0.2,2.1c0.6,3.1,1.8,6.1,3.3,8.9c2.2,4.3,6,8.4,9.5,12.6C20.8,63.8,20.6,62.3,20.7,60.8z"
			/>
		<path class="st1" d="M24.7-4c0,0-9.1-3.1-14.8-1.1c-5.7,2-7.1,6.7-10.4,8.3c-3.3,1.6-17.5,8.2-18,16.3l0.3,1.2
			c0,0,1.4-2.1,3.5-3.3c0,0-2.4,2.7-1.8,6.5l1.9-1.6c0,0-1.5,1.6,0.6,8.8c2,7.2,13.2,26.5,9.8,37c-3.4,10.5-3.1,12.7,3.4,12.1
			c6.4-0.6,17-3.7,19.5-17c2.5-13.4-3.5-34.6-6.9-37.3l3.4,2.8c0,0-1-5.6-4.1-7.4l3.1,1.8c0,0-3.6-16.3-0.8-19.1L24.7-4z"/>
		<path class="st24" d="M17.4-2.5c0,0-3.5,3.4-4.5,7.4C12.9,5,12.9-1,17.4-2.5z"/>
		<path class="st24" d="M2.5,0.5C-1.9,5.2-3.4,11.3-8.8,15.4c-0.1,0.1-0.1,0.2,0.1,0.2c2.7-1.6,4.5-4,6.2-6.2
			c2.1-2.8,3.2-5.9,5.1-8.8C2.7,0.5,2.6,0.5,2.5,0.5z"/>
		<path class="st25" d="M-0.4,54.6c-0.7-3.4-2.3-6.9-4.1-10c-3.7-6.5-8.8-14.7-7.4-22c0-0.1-0.2,0-0.2,0.1
			c-2.6,6.8,1.5,14.1,4.8,20.3c3.8,7.2,8.2,15.2,7.6,23.1c0,0.2,0.4,0,0.4-0.1C1.5,62,0.4,58.4-0.4,54.6z"/>
		<path class="st23" d="M75.3,60.8c-0.1-3.9-0.8-7.8-0.6-11.7c0.5-7.7,3.5-15,5.5-22.5c1.5-5.8,2.5-11.9,1.4-17.9
			c-0.6-3-1.7-5.8-3.4-8.3c3.5,2.4,6.7,5.3,8.8,8.6c0.1,0.2,0,0.3-0.2,0.2C86.9,9.5,87,9.6,87,9.8c3.3,7.7-2.9,15.8,0,23.7
			c1,2.7,0.8,5.5,0.9,8.2c0,0.7-0.1,1.4-0.2,2.1c-0.6,3.1-1.8,6.1-3.3,8.9c-2.2,4.3-6,8.4-9.5,12.6C75.2,63.8,75.4,62.3,75.3,60.8z"
			/>
		<path class="st1" d="M71.3-4c0,0,9.1-3.1,14.8-1.1c5.7,2,7.1,6.7,10.4,8.3c3.3,1.6,17.5,8.2,18,16.3l-0.3,1.2c0,0-1.4-2.1-3.5-3.3
			c0,0,2.4,2.7,1.8,6.5l-1.9-1.6c0,0,1.5,1.6-0.6,8.8c-2,7.2-13.2,26.5-9.8,37c3.4,10.5,3.1,12.7-3.4,12.1c-6.4-0.6-17-3.7-19.5-17
			c-2.5-13.4,3.5-34.6,6.9-37.3l-3.4,2.8c0,0,1-5.6,4.1-7.4l-3.1,1.8c0,0,3.6-16.3,0.8-19.1L71.3-4z"/>
		<path class="st24" d="M78.6-2.5c0,0,3.5,3.4,4.5,7.4C83.1,5,83.1-1,78.6-2.5z"/>
		<circle cx="67.9" cy="28.6" r="5.4"/>
		<circle class="st26" cx="67.9" cy="28.6" r="4.5"/>
		<circle class="st27" cx="69.1" cy="26.8" r="1.8"/>
		<circle cx="29.1" cy="28.6" r="5.4"/>
		<circle class="st26" cx="29.1" cy="28.6" r="4.5"/>
		<circle class="st27" cx="30.3" cy="26.8" r="1.8"/>
	</g>
</g>
</svg>
